<?xml version="1.0" encoding="utf-8"?>
<!-- Generator: Adobe Illustrator 23.0.6, SVG Export Plug-In . SVG Version: 6.00 Build 0)  -->
<svg version="1.1" xmlns="http://www.w3.org/2000/svg" xmlns:xlink="http://www.w3.org/1999/xlink" x="0px" y="0px" width="224.9px"
	 height="200.3px" viewBox="0 0 224.9 200.3" style="enable-background:new 0 0 224.9 200.3;" xml:space="preserve">
<style type="text/css">
	.st0{display:none;}
	.st1{display:inline;}
	.st2{fill-rule:evenodd;clip-rule:evenodd;fill:#008BFD;}
	.st3{font-family:'SegoeUI';}
	.st4{font-size:10px;}
	.st5{enable-background:new    ;}
	.st6{fill-rule:evenodd;clip-rule:evenodd;fill:#0078D7;}
	.st7{fill-rule:evenodd;clip-rule:evenodd;fill:#808080;}
	.st8{fill:none;}
	.st9{fill:#00B0F0;enable-background:new    ;}
	.st10{fill:#FFFFFF;}
	.st11{font-size:8px;}
	.st12{fill-rule:evenodd;clip-rule:evenodd;fill:none;}
	.st13{fill:#00B0F0;}
</style>
<g id="src" xmlns:ev="http://www.w3.org/2001/xml-events" xmlns:v="http://schemas.microsoft.com/visio/2003/SVGExtensions/" class="st0">
	
		<image style="display:inline;overflow:visible;" width="469" height="418" xlink:href="\\parana\PubMed\PHASES\MS_CnE\20170837_Azure Docs_Arts\HO 32\azure-docs-pr_FY20Oct10\Phase1_PP\OJ104440668\OJ104440668.png"  transform="matrix(0.4795 0 0 0.4795 3.839302e-02 7.117301e-02)">
	</image>
	<v:documentProperties  v:langID="1036" v:metric="true" v:viewMarkup="false">
		<v:userDefs>
			<v:ud  v:nameU="msvConvertTheme"></v:ud>
		</v:userDefs>
	</v:documentProperties>
	<g class="st1">
		<title>Page-1</title>
		
			<v:pageProperties  v:drawingScale="0.0393701" v:drawingUnits="24" v:pageScale="0.0393701" v:shadowOffsetX="8.50394" v:shadowOffsetY="-8.50394">
			</v:pageProperties>
		<v:layer  v:index="0" v:name="Azure"></v:layer>
		<v:layer  v:index="1" v:name="Connector"></v:layer>
		<g id="group1001-1" transform="translate(57.7598,-171.515)">
			<title>Web App (Was Websites).1277</title>
			<desc>Daemon Web App</desc>
			<g id="group1002-2">
				<title>Sheet.1002</title>
				<g id="shape1003-3">
					<title>Sheet.1003</title>
					<path class="st2" d="M22.9,195.9c-2.2,1.7-4.8,2.5-7.3,2.5c-3.6,0-7.2-1.7-9.6-4.8c-4-5.4-3-13.1,2.2-17.3
						c2.2-1.7,4.8-2.5,7.3-2.5c3.6,0,7.2,1.7,9.5,4.8C29.2,184,28.2,191.8,22.9,195.9z M26.5,177.5c-2.7-3.6-6.8-5.6-11-5.6
						c-2.9,0-5.9,1-8.4,2.9c-6,4.8-7.2,13.7-2.6,19.9c2.7,3.6,6.8,5.6,11,5.6c2.9,0,5.9-0.9,8.4-2.9C30,192.6,31.2,183.7,26.5,177.5
						z"/>
				</g>
			</g>
			<g id="group1004-5" transform="translate(4.95554,-4.39536)">
				<title>Sheet.1004</title>
				<g id="group1005-6" transform="translate(0.341805,-0.176482)">
					<title>Sheet.1005</title>
					<g id="group1006-7" transform="translate(0.437248,3.41061E-13)">
						<title>Sheet.1006</title>
						<g id="shape1007-8">
							<title>Sheet.1007</title>
							<path class="st2" d="M3.6,193.3c-0.8-0.8-1.4-1.6-2-2.4c-1.1,2.4-1.6,4.9-1.7,6.9c0.1,0.2,0.1,0.3,0.2,0.4
								c0.6,0.8,1.3,1.5,2,2.1C2.1,198.7,2.3,196,3.6,193.3z"/>
						</g>
					</g>
					<g id="shape1008-10" transform="translate(3.29213,-8.97695)">
						<title>Sheet.1008</title>
						<path class="st2" d="M4.9,192.8c-1.1,0.8-2.2,1.7-3.3,3c-0.6,0.7-1.1,1.4-1.6,2.1c0.5,0.8,1.1,1.6,1.9,2.5
							c0.6-0.9,1.3-1.7,2.2-2.6c1.1-1.1,2.2-1.9,3.1-2.6C6.4,194.4,5.7,193.6,4.9,192.8z"/>
					</g>
					<g id="group1009-12" transform="translate(9.93516,-15.1958)">
						<title>Sheet.1009</title>
						<g id="shape1010-13">
							<title>Sheet.1010</title>
							<path class="st2" d="M9.8,198.2c-0.5-0.7-1.1-1.3-1.7-1.8c-1.9-0.3-4.7-0.3-8,1.5c0.8,0.8,1.5,1.6,2.2,2.4
								C6.6,197.9,9.8,198.2,9.8,198.2z"/>
						</g>
					</g>
					<g id="group1011-15" transform="translate(1.10162E-13,-9.38012)">
						<title>Sheet.1011</title>
						<g id="shape1012-16">
							<title>Sheet.1012</title>
							<path class="st2" d="M2.1,200.3c0.3-0.7,0.7-1.4,1.2-2.1c-1.9-3.1-1.8-5.6-1.6-6.8c-0.5,0.5-0.9,1-1.3,1.6
								C0,194.7,0,197.2,2.1,200.3z"/>
						</g>
					</g>
					<g id="group1013-18" transform="translate(4.05148,-0.740211)">
						<title>Sheet.1013</title>
						<g id="shape1014-19">
							<title>Sheet.1014</title>
							<path class="st2" d="M3.4,194.2c-0.9-0.7-1.6-1.4-2.3-2.1c-0.5,0.7-0.8,1.3-1.1,1.9c0.6,0.6,1.3,1.3,2.1,1.9
								c4.9,4,9.8,4.4,12.6,4.4c0.2,0,1-1.2,1.5-1.9C15,198.6,9.7,199.3,3.4,194.2z"/>
						</g>
					</g>
					<g id="group1015-21" transform="translate(2.10339,-7.03041)">
						<title>Sheet.1015</title>
						<g id="shape1016-22">
							<title>Sheet.1016</title>
							<path class="st2" d="M0,198c0.5,0.8,1.1,1.5,2,2.4c0.3-0.6,0.7-1.3,1.1-1.9c-0.8-0.9-1.4-1.7-1.9-2.5
								C0.7,196.6,0.3,197.3,0,198z"/>
						</g>
					</g>
					<g id="group1017-24" transform="translate(10.5195,-5.3233)">
						<title>Sheet.1017</title>
						<g id="shape1018-25">
							<title>Sheet.1018</title>
							<path class="st2" d="M0,191.5c4.5,4.3,9.8,7.9,11.1,8.8c0.1-0.4,0.2-0.7,0.3-1.1c-1.4-1.1-5.3-4.2-9.8-8.8
								C1.1,190.7,0.6,191.1,0,191.5z"/>
						</g>
					</g>
					<g id="group1019-27" transform="translate(4.98729,-16.4714)">
						<title>Sheet.1019</title>
						<g id="shape1020-28">
							<title>Sheet.1020</title>
							<path class="st2" d="M4.9,199.2c-1.1-1.2-2.2-2.4-3.4-3.8c-0.6,0.2-1.1,0.4-1.6,0.7c0.8,1.4,2,2.8,3.2,4.2
								C3.8,199.9,4.4,199.5,4.9,199.2z"/>
						</g>
					</g>
					<g id="shape1021-30" transform="translate(8.13763,-14.0503)">
						<title>Sheet.1021</title>
						<path class="st2" d="M1.9,196.8c-0.6,0.3-1.3,0.8-1.9,1.2c0.7,0.8,1.5,1.6,2.3,2.4c0.6-0.4,1.3-0.9,1.9-1.2
							C3.4,198.4,2.6,197.6,1.9,196.8z"/>
					</g>
					<g id="shape1022-32" transform="translate(8.1369,-14.0039)">
						<title>Sheet.1022</title>
						<path class="st2" d="M1.7,196.6c-0.6,0.3-1.1,0.7-1.7,1.1c0.7,0.8,1.7,1.8,2.5,2.6c0.6-0.4,1-0.8,1.6-1.1
							C3.4,198.5,2.4,197.4,1.7,196.6z"/>
					</g>
				</g>
				<g id="group1023-34" transform="translate(14.8617,-6.23662)">
					<title>Sheet.1023</title>
					<g id="shape1024-35">
						<title>Sheet.1024</title>
						<path class="st2" d="M1.3,195.2c-1.1,0.9-1.3,2.6-0.5,3.7c0.9,1.2,2.5,1.4,3.6,0.5c1.1-0.9,1.3-2.6,0.5-3.7
							C4.1,194.6,2.5,194.3,1.3,195.2z"/>
					</g>
				</g>
				<g id="group1025-37" transform="translate(9.65099,-1.98952E-13)">
					<title>Sheet.1025</title>
					<g id="shape1026-38">
						<title>Sheet.1026</title>
						<path class="st2" d="M1.2,195.6c-1,0.8-1.2,2.4-0.4,3.4c0.8,1.1,2.3,1.3,3.4,0.4c1-0.8,1.2-2.4,0.4-3.4
							C3.8,195,2.3,194.8,1.2,195.6z"/>
					</g>
				</g>
				<g id="group1027-40" transform="translate(0,-5.36433)">
					<title>Sheet.1027</title>
					<g id="shape1028-41">
						<title>Sheet.1028</title>
						<path class="st2" d="M1.9,193.1c-1.6,1.3-1.9,3.6-0.7,5.2c1.2,1.6,3.5,1.9,5.1,0.7s1.9-3.6,0.7-5.2
							C5.8,192.2,3.5,191.9,1.9,193.1z"/>
					</g>
				</g>
			</g>
			<g id="shape1001-43">
				<v:textBlock  v:margins="rect(4,4,4,4)" v:tabSpace="42.5197"></v:textBlock>
				<v:textRect  cx="15.5906" cy="216.303" height="32.0037" width="52.14"></v:textRect>
				<text transform="matrix(1 0 0 1 -3.14 213.3002)" class="st3 st4">Daemon</text>
				<text transform="matrix(1 0 0 1 -5.11 225.3002)" class="st5"><tspan x="0" y="0" class="st3 st4">W</tspan><tspan x="9" y="0" class="st3 st4">eb-App</tspan></text>
				<v:paragraph  v:horizAlign="1"></v:paragraph>
				<v:tabList></v:tabList>
				<v:lf></v:lf>
			</g>
		</g>
		<g id="shape1029-46" transform="translate(189.503,-95.7592)">
			<title>API App.1305</title>
			<desc>Daemon API App</desc>
			<v:textBlock  v:margins="rect(4,4,4,4)" v:tabSpace="42.5197"></v:textBlock>
			<v:textRect  cx="11.3386" cy="216.303" height="32.0037" width="48.21"></v:textRect>
			<path class="st2" d="M21.6,174.8H1.1c-0.6,0-1.1,0.5-1.1,1.1v16.8c0,0.6,0.5,1.1,1.1,1.1h5.3c0.4,1.3,1.7,2.3,3.2,2.3
				c1.8,0,3.3-1.5,3.3-3.4s-1.5-3.4-3.3-3.4c-1.5,0-2.8,0.9-3.2,2.3H2.2v-12h18.3v12H17c-0.5-3.7-3.7-6.6-7.5-6.6
				c-1.3,0-2.5,0.4-3.6,0.9l1,2c0.7-0.4,1.7-0.7,2.6-0.7c2.9,0,5.4,2.5,5.4,5.5c0,3-2.4,5.4-5.4,5.4c-0.9,0-1.8-0.2-2.6-0.7l-1,2
				c1.1,0.6,2.4,0.9,3.6,0.9c3.8,0,7-2.9,7.5-6.6h4.5c0.6,0,1.1-0.5,1.1-1.1v-16.8C22.7,175.3,22.2,174.8,21.6,174.8z"/>
			<text transform="matrix(1 0 0 1 -7.39 213.3002)" class="st3 st4">Daemon</text>
			<text transform="matrix(1 0 0 1 -6.49 225.3002)" class="st3 st4">API-App</text>
			<v:paragraph  v:horizAlign="1"></v:paragraph>
			<v:tabList></v:tabList>
			<v:lf></v:lf>
		</g>
		<g id="group1030-50" transform="translate(58.6844,-93.562)">
			<title>Microsoft Enterprise desktop virtualization.1317</title>
			<desc>Daemon Desktop App</desc>
			<g id="shape1031-51">
				<title>Sheet.1031</title>
				<path class="st6" d="M15,199.5H0.8v-28.4H15v7.7h0.8v-8.4H0v29.9h15.7V198H15V199.5z"/>
			</g>
			<g id="shape1032-53" transform="translate(1.5606,-23.7593)">
				<title>Sheet.1032</title>
				<path class="st6" d="M12.6,195.7H0v4.6h12.6V195.7z M3.1,197.6h6.5v0.8H3.1V197.6z M9.6,199.5L9.6,199.5H3.1H3v-0.8h0.1h6.4h0.1
					V199.5z"/>
			</g>
			<g id="shape1033-55" transform="translate(1.52875,-19.9374)">
				<title>Sheet.1033</title>
				<path class="st6" d="M0,197.2v3.1h8.6v-1.5h4.1v-1.5H0z"/>
			</g>
			<g id="shape1034-57" transform="translate(1.52875,-16.4978)">
				<title>Sheet.1034</title>
				<rect x="0" y="197.6" class="st6" width="8.6" height="2.7"/>
			</g>
			<g id="shape1035-59" transform="translate(1.4969,-1.52875)">
				<title>Sheet.1035</title>
				<path class="st6" d="M0,200.3h12.7v-0.8H8.6v-13.4H0L0,200.3L0,200.3z M1.6,197.6h2.3v1.2H1.6V197.6z"/>
			</g>
			<g id="shape1036-61" transform="translate(16.02,-3.43969)">
				<title>Sheet.1036</title>
				<path class="st6" d="M8.7,199.2H6.3v-1.9H3.8v1.9H1.3c-0.7,0-1.3,0.6-1.3,1.2h10C10.1,199.7,9.4,199.2,8.7,199.2z"/>
			</g>
			<g id="shape1037-63" transform="translate(11.816,-7.22971)">
				<title>Sheet.1037</title>
				<path class="st6" d="M17.8,189H0.7c-0.4,0-0.7,0.3-0.7,0.6v10.1c0,0.3,0.3,0.6,0.7,0.6h17.1c0.4,0,0.7-0.3,0.7-0.6v-10.1
					C18.4,189.2,18.1,189,17.8,189z M16.8,198.8H1.7v-8.3h15.1V198.8z"/>
			</g>
			<g id="shape1038-65" transform="translate(17.931,-9.36359)">
				<title>Sheet.1038</title>
				<path class="st6" d="M7,198.5V195l-3.5-1.8L0,195v3.5l3.5,1.8L7,198.5z M2.6,196.2l0.9-0.4l0.9,0.4l-0.9,0.5L2.6,196.2z
					 M2.6,195l0.9-0.4l0.9,0.4l-0.9,0.5L2.6,195z M4.5,199.5l-1,0.5v-0.9l1-0.5V199.5z M4.5,198.4l-1,0.5v-0.9l1-0.5V198.4z
					 M4.5,197.2l-1,0.5v-0.9l1-0.5V197.2z M3.7,195.6l0.9-0.4l0.9,0.4L4.6,196L3.7,195.6z M5.7,198.9l-0.9,0.5v-0.9l0.9-0.5V198.9z
					 M5.7,197.8l-0.9,0.5v-0.9l0.9-0.5V197.8z M5.7,196.6l-0.9,0.5v-0.9l0.9-0.5V196.6z M6.8,198.4l-0.9,0.4v-0.9l0.9-0.5V198.4z
					 M6.8,197.2l-0.9,0.4v-0.9l0.9-0.4V197.2z M6.8,196.1l-0.9,0.4v-0.9l0.9-0.4V196.1z M6.6,195l-0.9,0.5L4.8,195l0.9-0.4L6.6,195z
					 M5.5,194.4l-0.9,0.4l-0.9-0.4l0.9-0.4L5.5,194.4z M3.5,193.4l0.9,0.4l-0.9,0.4l-0.9-0.4L3.5,193.4z M2.4,194l0.9,0.4l-0.9,0.4
					l-0.9-0.4L2.4,194z M1.3,194.6l0.9,0.4l-0.9,0.5L0.4,195L1.3,194.6z M1,198.8l-0.9-0.4v-0.9l0.9,0.4V198.8z M1,197.7l-0.9-0.4
					v-0.9l0.9,0.4V197.7z M1,196.5l-0.9-0.4v-0.9l0.9,0.4V196.5z M2.2,199.4l-1-0.5V198l1,0.5V199.4z M2.2,198.3l-1-0.5v-0.9l1,0.5
					V198.3z M2.2,197.1l-1-0.5v-0.9l1,0.5V197.1z M1.5,195.6l0.9-0.4l0.9,0.4l-0.9,0.5L1.5,195.6z M3.4,200.1l-1-0.5v-0.9l1,0.5
					V200.1z M3.4,198.9l-1-0.5v-0.9l1,0.5V198.9z M3.4,197.8l-1-0.5v-0.9l1,0.5V197.8z"/>
			</g>
			<g id="shape1030-67">
				<v:textBlock  v:margins="rect(0,0,0,0)" v:tabSpace="42.5197" v:verticalAlign="0"></v:textBlock>
				<v:textRect  cx="15.1283" cy="216.615" height="29.9062" width="67.07"></v:textRect>
				<text transform="matrix(1 0 0 1 -3.6 210.6601)" class="st3 st4">Daemon</text>
				<text transform="matrix(1 0 0 1 -13.64 222.6602)" class="st3 st4">Desktop-App</text>
				<v:paragraph  v:horizAlign="1"></v:paragraph>
				<v:tabList></v:tabList>
				<v:lf></v:lf>
			</g>
		</g>
		<g id="group1039-70" transform="translate(9.07811,-177.893)">
			<title>Certificate.1337</title>
			<desc>Secret</desc>
			<g id="shape1040-71" transform="translate(-9.29257E-14,-5.02924)">
				<title>Sheet.1040</title>
				<path class="st7" d="M8.3,199.4H1.6c-0.3,0-0.6-0.3-0.6-0.6v-6.4h1.9v-1.8h12.4c0.3,0,0.6,0.3,0.6,0.6v0.1
					c0.3,0.1,0.7,0.2,1,0.3v-0.4c0-0.8-0.7-1.5-1.6-1.5h-13L0,191.9v6.9c0,0.8,0.7,1.5,1.6,1.5h7.3C8.6,200,8.4,199.7,8.3,199.4z"/>
			</g>
			<g id="group1041-73" transform="translate(8.44762,2.84217E-14)">
				<title>Sheet.1041</title>
				<g id="group1042-74" transform="translate(0.737786,2.84217E-14)">
					<title>Sheet.1042</title>
					<g id="shape1043-75">
						<title>Sheet.1043</title>
						<path class="st7" d="M7.5,195.9l2.3,3.3l-2.2-0.5l-0.6,1.6l-2.3-2.9L3,200.3l-0.8-1.7L0,199.1l2.1-3.4c0,0,0.6,0.9,2.7,0.9
							C6.9,196.6,7.5,195.9,7.5,195.9z"/>
					</g>
				</g>
				<g id="group1044-77" transform="translate(1.9839,-4.95422)">
					<title>Sheet.1044</title>
					<g id="shape1045-78">
						<title>Sheet.1045</title>
						<path class="st7" d="M3.7,200.3c-2,0-3.7-1.5-3.7-3.4c0-1.9,1.7-3.4,3.7-3.4c2,0,3.7,1.5,3.7,3.4
							C7.4,198.8,5.8,200.3,3.7,200.3z M3.7,194.2c-1.6,0-2.9,1.2-2.9,2.6s1.3,2.6,2.9,2.6c1.6,0,2.9-1.2,2.9-2.6
							S5.3,194.2,3.7,194.2z"/>
					</g>
				</g>
				<g id="group1046-80" transform="translate(0,-3.14179)">
					<title>Sheet.1046</title>
					<g id="shape1047-81">
						<title>Sheet.1047</title>
						<path class="st7" d="M5.7,200.3c-3.1,0-5.7-2.3-5.7-5.2c0-2.9,2.6-5.2,5.7-5.2s5.7,2.3,5.7,5.2C11.4,198,8.8,200.3,5.7,200.3z
							 M5.7,190.6c-2.7,0-4.9,2-4.9,4.5c0,2.5,2.2,4.5,4.9,4.5s4.9-2,4.9-4.5C10.6,192.6,8.4,190.6,5.7,190.6z"/>
					</g>
				</g>
			</g>
			<g id="shape1039-83">
				<v:textBlock  v:margins="rect(4,4,4,4)" v:tabSpace="42.5197"></v:textBlock>
				<v:textRect  cx="9.92126" cy="210.303" height="20.0036" width="38"></v:textRect>
				<text transform="matrix(1 0 0 1 -3.71 213.3001)" class="st5 st3 st4">Geheimnis<v:paragraph  v:horizAlign="1"></v:paragraph><v:tabList></v:tabList></text>
			</g>
		</g>
		<g id="shape1050-96" transform="translate(62.4741,-20.0036)">
			<title>API App.1350</title>
			<desc>Daemon Web API</desc>
			<v:textBlock  v:margins="rect(4,4,4,4)" v:tabSpace="42.5197"></v:textBlock>
			<v:textRect  cx="11.3386" cy="210.303" height="20.0036" width="88.85"></v:textRect>
			<path class="st2" d="M21.6,174.8H1.1c-0.6,0-1.1,0.5-1.1,1.1v16.8c0,0.6,0.5,1.1,1.1,1.1h5.3c0.4,1.3,1.7,2.3,3.2,2.3
				c1.8,0,3.3-1.5,3.3-3.4s-1.5-3.4-3.3-3.4c-1.5,0-2.8,0.9-3.2,2.3H2.2v-12h18.3v12H17c-0.5-3.7-3.7-6.6-7.5-6.6
				c-1.3,0-2.5,0.4-3.6,0.9l1,2c0.7-0.4,1.7-0.7,2.6-0.7c2.9,0,5.4,2.5,5.4,5.5c0,3-2.4,5.4-5.4,5.4c-0.9,0-1.8-0.2-2.6-0.7l-1,2
				c1.1,0.6,2.4,0.9,3.6,0.9c3.8,0,7-2.9,7.5-6.6h4.5c0.6,0,1.1-0.5,1.1-1.1v-16.8C22.7,175.3,22.2,174.8,21.6,174.8z"/>
			<text transform="matrix(1 0 0 1 -27.71 213.3002)" class="st5"><tspan x="0" y="0" class="st3 st4">Daemon-</tspan><tspan x="41.5" y="0" class="st3 st4">W</tspan><tspan x="50.4" y="0" class="st3 st4">eb-API</tspan><v:paragraph  v:horizAlign="1"></v:paragraph><v:tabList></v:tabList></text>
		</g>
		<g id="group1051-99" transform="translate(9.07811,-100.72)">
			<title>Certificate.1385</title>
			<desc>Secret</desc>
			<g id="shape1052-100" transform="translate(-9.29257E-14,-5.02924)">
				<title>Sheet.1052</title>
				<path class="st7" d="M8.3,199.4H1.6c-0.3,0-0.6-0.3-0.6-0.6v-6.4h1.9v-1.8h12.4c0.3,0,0.6,0.3,0.6,0.6v0.1
					c0.3,0.1,0.7,0.2,1,0.3v-0.4c0-0.8-0.7-1.5-1.6-1.5h-13L0,191.9v6.9c0,0.8,0.7,1.5,1.6,1.5h7.3C8.6,200,8.4,199.7,8.3,199.4z"/>
			</g>
			<g id="group1053-102" transform="translate(8.44762,2.84217E-14)">
				<title>Sheet.1053</title>
				<g id="group1054-103" transform="translate(0.737786,2.84217E-14)">
					<title>Sheet.1054</title>
					<g id="shape1055-104">
						<title>Sheet.1055</title>
						<path class="st7" d="M7.5,195.9l2.3,3.3l-2.2-0.5l-0.6,1.6l-2.3-2.9L3,200.3l-0.8-1.7L0,199.1l2.1-3.4c0,0,0.6,0.9,2.7,0.9
							C6.9,196.6,7.5,195.9,7.5,195.9z"/>
					</g>
				</g>
				<g id="group1056-106" transform="translate(1.9839,-4.95422)">
					<title>Sheet.1056</title>
					<g id="shape1057-107">
						<title>Sheet.1057</title>
						<path class="st7" d="M3.7,200.3c-2,0-3.7-1.5-3.7-3.4c0-1.9,1.7-3.4,3.7-3.4c2,0,3.7,1.5,3.7,3.4
							C7.4,198.8,5.8,200.3,3.7,200.3z M3.7,194.2c-1.6,0-2.9,1.2-2.9,2.6s1.3,2.6,2.9,2.6c1.6,0,2.9-1.2,2.9-2.6
							S5.3,194.2,3.7,194.2z"/>
					</g>
				</g>
				<g id="group1058-109" transform="translate(0,-3.14179)">
					<title>Sheet.1058</title>
					<g id="shape1059-110">
						<title>Sheet.1059</title>
						<path class="st7" d="M5.7,200.3c-3.1,0-5.7-2.3-5.7-5.2c0-2.9,2.6-5.2,5.7-5.2s5.7,2.3,5.7,5.2C11.4,198,8.8,200.3,5.7,200.3z
							 M5.7,190.6c-2.7,0-4.9,2-4.9,4.5c0,2.5,2.2,4.5,4.9,4.5s4.9-2,4.9-4.5C10.6,192.6,8.4,190.6,5.7,190.6z"/>
					</g>
				</g>
			</g>
			<g id="shape1051-112">
				<v:textBlock  v:margins="rect(4,4,4,4)" v:tabSpace="42.5197"></v:textBlock>
				<v:textRect  cx="9.92126" cy="210.303" height="20.0036" width="38"></v:textRect>
				<text transform="matrix(1 0 0 1 -3.71 213.3001)" class="st5 st3 st4">Geheimnis<v:paragraph  v:horizAlign="1"></v:paragraph><v:tabList></v:tabList></text>
			</g>
		</g>
		<g id="group1060-114" transform="translate(9.07811,-29.9249)">
			<title>Certificate.1416</title>
			<desc>Secret</desc>
			<g id="shape1061-115" transform="translate(-9.29257E-14,-5.02924)">
				<title>Sheet.1061</title>
				<path class="st7" d="M8.3,199.4H1.6c-0.3,0-0.6-0.3-0.6-0.6v-6.4h1.9v-1.8h12.4c0.3,0,0.6,0.3,0.6,0.6v0.1
					c0.3,0.1,0.7,0.2,1,0.3v-0.4c0-0.8-0.7-1.5-1.6-1.5h-13L0,191.9v6.9c0,0.8,0.7,1.5,1.6,1.5h7.3C8.6,200,8.4,199.7,8.3,199.4z"/>
			</g>
			<g id="group1062-117" transform="translate(8.44762,2.84217E-14)">
				<title>Sheet.1062</title>
				<g id="group1063-118" transform="translate(0.737786,2.84217E-14)">
					<title>Sheet.1063</title>
					<g id="shape1064-119">
						<title>Sheet.1064</title>
						<path class="st7" d="M7.5,195.9l2.3,3.3l-2.2-0.5l-0.6,1.6l-2.3-2.9L3,200.3l-0.8-1.7L0,199.1l2.1-3.4c0,0,0.6,0.9,2.7,0.9
							C6.9,196.6,7.5,195.9,7.5,195.9z"/>
					</g>
				</g>
				<g id="group1065-121" transform="translate(1.9839,-4.95422)">
					<title>Sheet.1065</title>
					<g id="shape1066-122">
						<title>Sheet.1066</title>
						<path class="st7" d="M3.7,200.3c-2,0-3.7-1.5-3.7-3.4c0-1.9,1.7-3.4,3.7-3.4c2,0,3.7,1.5,3.7,3.4
							C7.4,198.8,5.8,200.3,3.7,200.3z M3.7,194.2c-1.6,0-2.9,1.2-2.9,2.6s1.3,2.6,2.9,2.6c1.6,0,2.9-1.2,2.9-2.6
							S5.3,194.2,3.7,194.2z"/>
					</g>
				</g>
				<g id="group1067-124" transform="translate(0,-3.14179)">
					<title>Sheet.1067</title>
					<g id="shape1068-125">
						<title>Sheet.1068</title>
						<path class="st7" d="M5.7,200.3c-3.1,0-5.7-2.3-5.7-5.2c0-2.9,2.6-5.2,5.7-5.2s5.7,2.3,5.7,5.2C11.4,198,8.8,200.3,5.7,200.3z
							 M5.7,190.6c-2.7,0-4.9,2-4.9,4.5c0,2.5,2.2,4.5,4.9,4.5s4.9-2,4.9-4.5C10.6,192.6,8.4,190.6,5.7,190.6z"/>
					</g>
				</g>
			</g>
			<g id="shape1060-127">
				<v:textBlock  v:margins="rect(4,4,4,4)" v:tabSpace="42.5197"></v:textBlock>
				<v:textRect  cx="9.92126" cy="210.303" height="20.0036" width="38"></v:textRect>
				<text transform="matrix(1 0 0 1 -3.71 213.3001)" class="st5 st3 st4">Geheimnis<v:paragraph  v:horizAlign="1"></v:paragraph><v:tabList></v:tabList></text>
			</g>
		</g>
		<g id="shape1215-134" transform="translate(104.464,-119.188)">
			<title>Sheet.1215</title>
			<desc>Client Credentials flow</desc>
			<v:textBlock  v:margins="rect(4,4,4,4)" v:tabSpace="42.5197"></v:textBlock>
			<v:textRect  cx="57.1036" cy="190.301" height="20" width="114.21"></v:textRect>
			<rect x="0" y="180.3" class="st8" width="114.2" height="20"/>
			<text transform="matrix(1 0 0 1 7.77 193.3001)" class="st9 st3 st4">Flow für Clientanmeldeinformationen<v:paragraph  v:horizAlign="1"></v:paragraph><v:tabList></v:tabList></text>
		</g>
	</g>
</g>
<g id="text">
	<g>
		
			<image style="overflow:visible;" width="469" height="418" xlink:href="\\parana\PubMed\PHASES\MS_CnE\20170837_Azure Docs_Arts\HO 32\azure-docs-pr_FY20Oct10\Phase1_PP\OJ104440668\OJ104440668.png"  transform="matrix(0.4795 0 0 0.4795 3.839302e-02 7.117301e-02)">
		</image>
		<rect x="178.8" y="108.5" class="st10" width="44.7" height="35.1"/>
		<rect x="40.7" y="109" class="st10" width="62.5" height="27.4"/>
		<rect x="14.8" y="183.4" class="st10" width="102.5" height="13"/>
		<rect x="2.1" y="173.4" class="st10" width="33.2" height="23"/>
		<rect x="3.1" y="101.8" class="st10" width="29.6" height="20.9"/>
		<rect x="5.4" y="26.9" class="st10" width="33.8" height="21.4"/>
		<rect x="48.6" y="32" class="st10" width="49.8" height="26.6"/>
		<rect x="112.5" y="58.5" class="st10" width="99.7" height="18.3"/>
	</g>
	<v:textBlock  v:margins="rect(4,4,4,4)" v:tabSpace="42.5197"></v:textBlock>
	<v:textRect  cx="9.92126" cy="210.303" height="20.0036" width="38"></v:textRect>
	<text transform="matrix(1 0 0 1 5.3682 35.4071)" class="st3 st11">Geheimnis</text>
	<text transform="matrix(1 0 0 1 5.3682 112.58)" class="st3 st11">Geheimnis</text>
	<text transform="matrix(1 0 0 1 5.3682 183.3752)" class="st3 st11">Geheimnis</text>
	<text transform="matrix(1 0 0 1 41.7224 193.2968)"><tspan x="0" y="0" class="st3 st11">Daemon-</tspan><tspan x="33.2" y="0" class="st3 st11">W</tspan><tspan x="40.3" y="0" class="st3 st11">eb-API</tspan></text>
	<rect x="180.8" y="109" class="st12" width="40.2" height="21.8"/>
	<text transform="matrix(1 0 0 1 184.2588 115.8221)"><tspan x="0" y="0" class="st3 st11">Daemon- </tspan><tspan x="1.8" y="9.6" class="st3 st11">API-App</tspan></text>
	<rect x="44.5" y="108.5" class="st12" width="58.7" height="25.3"/>
	<text transform="matrix(1 0 0 1 57.23 115.2566)"><tspan x="0" y="0" class="st3 st11">Daemon- </tspan><tspan x="-6.9" y="9.6" class="st3 st11">Desktop-App</tspan></text>
	<rect x="55.6" y="33.3" class="st12" width="39.5" height="25.3"/>
	<text transform="matrix(1 0 0 1 58.7307 40.0651)"><tspan x="0" y="0" class="st3 st11">Daemon-</tspan><tspan x="-0.3" y="9.6" class="st3 st11">W</tspan><tspan x="6.8" y="9.6" class="st3 st11">eb-App</tspan></text>
	<rect x="106.7" y="58.5" class="st8" width="111.2" height="28"/>
	<text transform="matrix(1 0 0 1 149.0087 65.3331)"><tspan x="0" y="0" class="st13 st3 st11">Flow für </tspan><tspan x="-34" y="9.6" class="st13 st3 st11">Clientanmeldeinformationen</tspan></text>
</g>
<g id="shapes">
	<title>Page-1</title>
	
		<v:pageProperties  v:drawingScale="0.0393701" v:drawingUnits="24" v:pageScale="0.0393701" v:shadowOffsetX="8.50394" v:shadowOffsetY="-8.50394">
		</v:pageProperties>
	<v:layer  v:index="0" v:name="Azure"></v:layer>
	<v:layer  v:index="1" v:name="Connector"></v:layer>
	<g id="group1001-1_1_" transform="translate(57.7598,-171.515)">
		<title>Web App (Was Websites).1277</title>
		<desc>Daemon Web App</desc>
		<g id="group1002-2_1_">
			<title>Sheet.1002</title>
			<g id="shape1003-3_1_">
				<title>Sheet.1003</title>
				<path class="st2" d="M22.9,195.9c-2.2,1.7-4.8,2.5-7.3,2.5c-3.6,0-7.2-1.7-9.6-4.8c-4-5.4-3-13.1,2.2-17.3
					c2.2-1.7,4.8-2.5,7.3-2.5c3.6,0,7.2,1.7,9.5,4.8C29.2,184,28.2,191.8,22.9,195.9z M26.5,177.5c-2.7-3.6-6.8-5.6-11-5.6
					c-2.9,0-5.9,1-8.4,2.9c-6,4.8-7.2,13.7-2.6,19.9c2.7,3.6,6.8,5.6,11,5.6c2.9,0,5.9-0.9,8.4-2.9C30,192.6,31.2,183.7,26.5,177.5z
					"/>
			</g>
		</g>
		<title>Sheet.1004</title>
		<title>Sheet.1005</title>
		<g id="group1006-7_1_" transform="translate(0.437248,3.41061E-13)">
			<title>Sheet.1006</title>
			<g id="shape1007-8_1_">
				<title>Sheet.1007</title>
				<path class="st2" d="M8.9,188.7c-0.8-0.8-1.4-1.6-2-2.4c-1.2,2.4-1.6,4.9-1.7,6.9c0.1,0.2,0.1,0.3,0.2,0.4
					c0.6,0.8,1.3,1.5,2,2.1C7.4,194.1,7.6,191.5,8.9,188.7z"/>
			</g>
		</g>
		<g id="shape1008-10_1_" transform="translate(3.29213,-8.97695)">
			<title>Sheet.1008</title>
			<path class="st2" d="M10.2,188.2c-1.1,0.8-2.2,1.7-3.3,3c-0.6,0.7-1.2,1.4-1.6,2.1c0.5,0.8,1.1,1.6,1.9,2.5
				c0.6-0.9,1.3-1.7,2.2-2.6c1.1-1.1,2.2-1.9,3.1-2.6C11.7,189.8,10.9,189,10.2,188.2z"/>
		</g>
		<g id="group1009-12_1_" transform="translate(9.93516,-15.1958)">
			<title>Sheet.1009</title>
			<g id="shape1010-13_1_">
				<title>Sheet.1010</title>
				<path class="st2" d="M15.1,193.7c-0.5-0.7-1.1-1.3-1.7-1.8c-1.9-0.3-4.7-0.3-8,1.5c0.8,0.8,1.5,1.6,2.2,2.4
					C11.9,193.3,15.1,193.7,15.1,193.7z"/>
			</g>
		</g>
		<g id="group1011-15_1_" transform="translate(1.10162E-13,-9.38012)">
			<title>Sheet.1011</title>
			<g id="shape1012-16_1_">
				<title>Sheet.1012</title>
				<path class="st2" d="M6.2,187.4c0.3-0.7,0.7-1.4,1.2-2.1c-1.9-3.1-1.8-5.6-1.6-6.8c-0.5,0.5-0.9,1-1.3,1.6
					C4.1,181.8,4.1,184.3,6.2,187.4z"/>
			</g>
		</g>
		<g id="group1013-18_1_" transform="translate(4.05148,-0.740211)">
			<title>Sheet.1013</title>
			<g id="shape1014-19_1_">
				<title>Sheet.1014</title>
				<path class="st2" d="M8.7,189.6c-0.9-0.7-1.6-1.4-2.3-2.1c-0.5,0.7-0.8,1.3-1.1,1.9c0.6,0.6,1.3,1.3,2.1,1.9
					c4.9,4,9.8,4.4,12.6,4.4c0.2,0,1-1.2,1.5-1.9C20.3,194,15,194.7,8.7,189.6z"/>
			</g>
		</g>
		<g id="group1015-21_1_" transform="translate(2.10339,-7.03041)">
			<title>Sheet.1015</title>
			<g id="shape1016-22_1_">
				<title>Sheet.1016</title>
				<path class="st2" d="M5.3,193.4c0.5,0.8,1.2,1.5,1.9,2.4c0.3-0.6,0.7-1.3,1.1-1.9c-0.8-0.9-1.4-1.7-1.9-2.5
					C6,192,5.6,192.7,5.3,193.4z"/>
			</g>
		</g>
		<g id="group1017-24_1_" transform="translate(10.5195,-5.3233)">
			<title>Sheet.1017</title>
			<g id="shape1018-25_1_">
				<title>Sheet.1018</title>
				<path class="st2" d="M5.3,186.9c4.5,4.3,9.8,7.9,11.1,8.8c0.1-0.4,0.2-0.7,0.3-1.1c-1.4-1.1-5.3-4.2-9.8-8.8
					C6.4,186.1,5.9,186.5,5.3,186.9z"/>
			</g>
		</g>
		<g id="group1019-27_1_" transform="translate(4.98729,-16.4714)">
			<title>Sheet.1019</title>
			<g id="shape1020-28_1_">
				<title>Sheet.1020</title>
				<path class="st2" d="M10.2,194.6c-1.1-1.2-2.2-2.4-3.4-3.8c-0.6,0.2-1.1,0.4-1.6,0.7c0.8,1.4,2,2.8,3.2,4.2
					C9.1,195.3,9.7,194.9,10.2,194.6z"/>
			</g>
		</g>
		<g id="shape1021-30_1_" transform="translate(8.13763,-14.0503)">
			<title>Sheet.1021</title>
			<path class="st2" d="M7.2,192.2c-0.6,0.3-1.3,0.8-1.9,1.2c0.7,0.8,1.4,1.6,2.3,2.4c0.6-0.4,1.3-0.9,1.9-1.2
				C8.7,193.8,7.9,193,7.2,192.2z"/>
		</g>
		<g id="shape1022-32_1_" transform="translate(8.1369,-14.0039)">
			<title>Sheet.1022</title>
			<path class="st2" d="M7,192c-0.6,0.3-1.1,0.7-1.7,1.1c0.7,0.8,1.7,1.8,2.5,2.6c0.6-0.4,1.1-0.8,1.6-1.1
				C8.7,193.9,7.7,192.9,7,192z"/>
		</g>
		<g id="group1023-34_1_" transform="translate(14.8617,-6.23662)">
			<title>Sheet.1023</title>
			<g id="shape1024-35_1_">
				<title>Sheet.1024</title>
				<path class="st2" d="M6.3,190.8c-1.1,0.9-1.3,2.6-0.5,3.7c0.9,1.2,2.5,1.4,3.6,0.5c1.1-0.9,1.3-2.6,0.5-3.7
					C9.1,190.2,7.4,189.9,6.3,190.8z"/>
			</g>
		</g>
		<g id="group1025-37_1_" transform="translate(9.65099,-1.98952E-13)">
			<title>Sheet.1025</title>
			<g id="shape1026-38_1_">
				<title>Sheet.1026</title>
				<path class="st2" d="M6.2,191.2c-1,0.8-1.2,2.4-0.4,3.4c0.8,1.1,2.3,1.3,3.4,0.4c1-0.8,1.2-2.4,0.4-3.4
					C8.7,190.6,7.2,190.4,6.2,191.2z"/>
			</g>
		</g>
		<g id="group1027-40_1_" transform="translate(0,-5.36433)">
			<title>Sheet.1027</title>
			<g id="shape1028-41_1_">
				<title>Sheet.1028</title>
				<path class="st2" d="M6.8,188.7C5.3,190,5,192.3,6.2,194c1.2,1.6,3.5,1.9,5.1,0.7s1.9-3.6,0.7-5.2
					C10.7,187.8,8.4,187.5,6.8,188.7z"/>
			</g>
		</g>
	</g>
	<title>API App.1305</title>
	<desc>Daemon API App</desc>
	<v:textBlock  v:margins="rect(4,4,4,4)" v:tabSpace="42.5197"></v:textBlock>
	<v:textRect  cx="11.3386" cy="216.303" height="32.0037" width="48.21"></v:textRect>
	<path class="st2" d="M211.1,79h-20.5c-0.6,0-1.1,0.5-1.1,1.1v16.8c0,0.6,0.5,1.1,1.1,1.1h5.3c0.4,1.3,1.7,2.3,3.2,2.3
		c1.8,0,3.3-1.5,3.3-3.4s-1.5-3.4-3.3-3.4c-1.5,0-2.8,0.9-3.2,2.3h-4.2v-12H210v12h-3.5c-0.5-3.7-3.7-6.6-7.5-6.6
		c-1.3,0-2.6,0.4-3.6,0.9l1,2c0.7-0.4,1.7-0.7,2.6-0.7c2.9,0,5.4,2.5,5.4,5.5c0,3-2.4,5.4-5.4,5.4c-0.9,0-1.8-0.2-2.6-0.7l-1,2
		c1.1,0.6,2.4,0.9,3.6,0.9c3.8,0,7-2.9,7.5-6.6h4.6c0.6,0,1.1-0.5,1.1-1.1V80.1C212.2,79.6,211.7,79,211.1,79z"/>
	<g id="group1030-50_1_" transform="translate(58.6844,-93.562)">
		<title>Microsoft Enterprise desktop virtualization.1317</title>
		<desc>Daemon Desktop App</desc>
		<g id="shape1031-51_1_">
			<title>Sheet.1031</title>
			<path class="st6" d="M15,199.5H0.8v-28.4H15v7.7h0.8v-8.4H0v29.9h15.7V198H15V199.5z"/>
		</g>
		<g id="shape1032-53_1_" transform="translate(1.5606,-23.7593)">
			<title>Sheet.1032</title>
			<path class="st6" d="M12.6,195.7H0v4.6h12.6V195.7z M3.1,197.6h6.5v0.8H3.1V197.6z M9.6,199.5L9.6,199.5H3.1H3v-0.8h0.1h6.4h0.1
				V199.5z"/>
		</g>
		<g id="shape1033-55_1_" transform="translate(1.52875,-19.9374)">
			<title>Sheet.1033</title>
			<path class="st6" d="M0,197.2v3.1h8.6v-1.5h4.1v-1.5H0z"/>
		</g>
		<g id="shape1034-57_1_" transform="translate(1.52875,-16.4978)">
			<title>Sheet.1034</title>
			<rect x="0" y="197.6" class="st6" width="8.6" height="2.7"/>
		</g>
		<g id="shape1035-59_1_" transform="translate(1.4969,-1.52875)">
			<title>Sheet.1035</title>
			<path class="st6" d="M0,200.3h12.7v-0.8H8.6v-13.4H0L0,200.3L0,200.3z M1.6,197.6h2.3v1.2H1.6V197.6z"/>
		</g>
		<g id="shape1036-61_1_" transform="translate(16.02,-3.43969)">
			<title>Sheet.1036</title>
			<path class="st6" d="M8.7,199.2H6.3v-1.9H3.8v1.9H1.3c-0.7,0-1.3,0.6-1.3,1.2h10C10.1,199.7,9.4,199.2,8.7,199.2z"/>
		</g>
		<g id="shape1037-63_1_" transform="translate(11.816,-7.22971)">
			<title>Sheet.1037</title>
			<path class="st6" d="M17.8,189H0.7c-0.4,0-0.7,0.3-0.7,0.6v10.1c0,0.3,0.3,0.6,0.7,0.6h17.1c0.4,0,0.7-0.3,0.7-0.6v-10.1
				C18.4,189.2,18.1,189,17.8,189z M16.8,198.8H1.7v-8.3h15.1V198.8z"/>
		</g>
		<g id="shape1038-65_1_" transform="translate(17.931,-9.36359)">
			<title>Sheet.1038</title>
			<path class="st6" d="M7,198.5V195l-3.5-1.8L0,195v3.5l3.5,1.8L7,198.5z M2.6,196.2l0.9-0.4l0.9,0.4l-0.9,0.5L2.6,196.2z M2.6,195
				l0.9-0.4l0.9,0.4l-0.9,0.5L2.6,195z M4.5,199.5l-1,0.5v-0.9l1-0.5V199.5z M4.5,198.4l-1,0.5v-0.9l1-0.5V198.4z M4.5,197.2l-1,0.5
				v-0.9l1-0.5V197.2z M3.7,195.6l0.9-0.4l0.9,0.4L4.6,196L3.7,195.6z M5.7,198.9l-0.9,0.5v-0.9l0.9-0.5V198.9z M5.7,197.8l-0.9,0.5
				v-0.9l0.9-0.5V197.8z M5.7,196.6l-0.9,0.5v-0.9l0.9-0.5V196.6z M6.8,198.4l-0.9,0.4v-0.9l0.9-0.5V198.4z M6.8,197.2l-0.9,0.4
				v-0.9l0.9-0.4V197.2z M6.8,196.1l-0.9,0.4v-0.9l0.9-0.4V196.1z M6.6,195l-0.9,0.5L4.8,195l0.9-0.4L6.6,195z M5.5,194.4l-0.9,0.4
				l-0.9-0.4l0.9-0.4L5.5,194.4z M3.5,193.4l0.9,0.4l-0.9,0.4l-0.9-0.4L3.5,193.4z M2.4,194l0.9,0.4l-0.9,0.4l-0.9-0.4L2.4,194z
				 M1.3,194.6l0.9,0.4l-0.9,0.5L0.4,195L1.3,194.6z M1,198.8l-0.9-0.4v-0.9l0.9,0.4V198.8z M1,197.7l-0.9-0.4v-0.9l0.9,0.4V197.7z
				 M1,196.5l-0.9-0.4v-0.9l0.9,0.4V196.5z M2.2,199.4l-1-0.5V198l1,0.5V199.4z M2.2,198.3l-1-0.5v-0.9l1,0.5V198.3z M2.2,197.1
				l-1-0.5v-0.9l1,0.5V197.1z M1.5,195.6l0.9-0.4l0.9,0.4l-0.9,0.5L1.5,195.6z M3.4,200.1l-1-0.5v-0.9l1,0.5V200.1z M3.4,198.9
				l-1-0.5v-0.9l1,0.5V198.9z M3.4,197.8l-1-0.5v-0.9l1,0.5V197.8z"/>
		</g>
	</g>
	<title>Certificate.1337</title>
	<desc>Secret</desc>
	<g>
		<g id="shape1040-71_1_" transform="translate(-9.29257E-14,-5.02924)">
			<title>Sheet.1040</title>
			<path class="st7" d="M17.4,21.5h-6.7c-0.3,0-0.6-0.3-0.6-0.6v-6.4H12v-1.8h12.4c0.3,0,0.6,0.3,0.6,0.6v0.1c0.3,0.1,0.7,0.2,1,0.3
				v-0.4c0-0.8-0.7-1.5-1.6-1.5h-13L9.1,14v6.9c0,0.8,0.7,1.5,1.6,1.5h7.3C17.7,22.1,17.5,21.8,17.4,21.5z"/>
		</g>
		<g id="group1041-73_1_" transform="translate(8.44762,2.84217E-14)">
			<title>Sheet.1041</title>
			<g id="group1042-74_1_" transform="translate(0.737786,2.84217E-14)">
				<title>Sheet.1042</title>
				<g id="shape1043-75_1_">
					<title>Sheet.1043</title>
					<path class="st7" d="M16.6,18l2.3,3.3l-2.2-0.5l-0.6,1.6l-2.3-2.9L12,22.4l-0.8-1.7l-2.2,0.5l2.1-3.4c0,0,0.6,0.9,2.7,0.9
						C16,18.7,16.6,18,16.6,18z"/>
				</g>
			</g>
			<g id="group1044-77_1_" transform="translate(1.9839,-4.95422)">
				<title>Sheet.1044</title>
				<g id="shape1045-78_1_">
					<title>Sheet.1045</title>
					<path class="st7" d="M12.8,22.4c-2,0-3.7-1.5-3.7-3.4c0-1.9,1.7-3.4,3.7-3.4c2.1,0,3.7,1.5,3.7,3.4
						C16.5,20.9,14.8,22.4,12.8,22.4z M12.8,16.3c-1.6,0-2.9,1.2-2.9,2.6s1.3,2.6,2.9,2.6c1.6,0,2.9-1.2,2.9-2.6
						S14.4,16.3,12.8,16.3z"/>
				</g>
			</g>
			<g id="group1046-80_1_" transform="translate(0,-3.14179)">
				<title>Sheet.1046</title>
				<g id="shape1047-81_1_">
					<title>Sheet.1047</title>
					<path class="st7" d="M14.8,22.4c-3.1,0-5.7-2.3-5.7-5.2c0-2.9,2.6-5.2,5.7-5.2s5.7,2.3,5.7,5.2C20.5,20.1,17.9,22.4,14.8,22.4z
						 M14.8,12.7c-2.7,0-4.9,2-4.9,4.5c0,2.5,2.2,4.5,4.9,4.5s4.9-2,4.9-4.5C19.6,14.7,17.5,12.7,14.8,12.7z"/>
				</g>
			</g>
		</g>
	</g>
	<g id="shape1050-96_1_" transform="translate(62.4741,-20.0036)">
		<title>API App.1350</title>
		<desc>Daemon Web API</desc>
		<v:textBlock  v:margins="rect(4,4,4,4)" v:tabSpace="42.5197"></v:textBlock>
		<v:textRect  cx="11.3386" cy="210.303" height="20.0036" width="88.85"></v:textRect>
		<path class="st2" d="M21.6,174.8H1.1c-0.6,0-1.1,0.5-1.1,1.1v16.8c0,0.6,0.5,1.1,1.1,1.1h5.3c0.4,1.3,1.7,2.3,3.2,2.3
			c1.8,0,3.3-1.5,3.3-3.4s-1.5-3.4-3.3-3.4c-1.5,0-2.8,0.9-3.2,2.3H2.2v-12h18.3v12H17c-0.5-3.7-3.7-6.6-7.5-6.6
			c-1.3,0-2.5,0.4-3.6,0.9l1,2c0.7-0.4,1.7-0.7,2.6-0.7c2.9,0,5.4,2.5,5.4,5.5c0,3-2.4,5.4-5.4,5.4c-0.9,0-1.8-0.2-2.6-0.7l-1,2
			c1.1,0.6,2.4,0.9,3.6,0.9c3.8,0,7-2.9,7.5-6.6h4.5c0.6,0,1.1-0.5,1.1-1.1v-16.8C22.7,175.3,22.2,174.8,21.6,174.8z"/>
	</g>
	<g id="group1051-99_1_" transform="translate(9.07811,-100.72)">
		<title>Certificate.1385</title>
		<desc>Secret</desc>
		<g id="shape1052-100_1_" transform="translate(-9.29257E-14,-5.02924)">
			<title>Sheet.1052</title>
			<path class="st7" d="M8.3,199.4H1.6c-0.3,0-0.6-0.3-0.6-0.6v-6.4h1.9v-1.8h12.4c0.3,0,0.6,0.3,0.6,0.6v0.1c0.3,0.1,0.7,0.2,1,0.3
				v-0.4c0-0.8-0.7-1.5-1.6-1.5h-13L0,191.9v6.9c0,0.8,0.7,1.5,1.6,1.5h7.3C8.6,200,8.4,199.7,8.3,199.4z"/>
		</g>
		<g id="group1053-102_1_" transform="translate(8.44762,2.84217E-14)">
			<title>Sheet.1053</title>
			<g id="group1054-103_1_" transform="translate(0.737786,2.84217E-14)">
				<title>Sheet.1054</title>
				<g id="shape1055-104_1_">
					<title>Sheet.1055</title>
					<path class="st7" d="M7.5,195.9l2.3,3.3l-2.2-0.5l-0.6,1.6l-2.3-2.9L3,200.3l-0.8-1.7L0,199.1l2.1-3.4c0,0,0.6,0.9,2.7,0.9
						C6.9,196.6,7.5,195.9,7.5,195.9z"/>
				</g>
			</g>
			<g id="group1056-106_1_" transform="translate(1.9839,-4.95422)">
				<title>Sheet.1056</title>
				<g id="shape1057-107_1_">
					<title>Sheet.1057</title>
					<path class="st7" d="M3.7,200.3c-2,0-3.7-1.5-3.7-3.4c0-1.9,1.7-3.4,3.7-3.4c2,0,3.7,1.5,3.7,3.4
						C7.4,198.8,5.8,200.3,3.7,200.3z M3.7,194.2c-1.6,0-2.9,1.2-2.9,2.6s1.3,2.6,2.9,2.6c1.6,0,2.9-1.2,2.9-2.6
						S5.3,194.2,3.7,194.2z"/>
				</g>
			</g>
			<g id="group1058-109_1_" transform="translate(0,-3.14179)">
				<title>Sheet.1058</title>
				<g id="shape1059-110_1_">
					<title>Sheet.1059</title>
					<path class="st7" d="M5.7,200.3c-3.1,0-5.7-2.3-5.7-5.2c0-2.9,2.6-5.2,5.7-5.2s5.7,2.3,5.7,5.2C11.4,198,8.8,200.3,5.7,200.3z
						 M5.7,190.6c-2.7,0-4.9,2-4.9,4.5c0,2.5,2.2,4.5,4.9,4.5s4.9-2,4.9-4.5C10.6,192.6,8.4,190.6,5.7,190.6z"/>
				</g>
			</g>
		</g>
	</g>
	<g id="group1060-114_1_" transform="translate(9.07811,-29.9249)">
		<title>Certificate.1416</title>
		<desc>Secret</desc>
		<g id="shape1061-115_1_" transform="translate(-9.29257E-14,-5.02924)">
			<title>Sheet.1061</title>
			<path class="st7" d="M8.3,199.4H1.6c-0.3,0-0.6-0.3-0.6-0.6v-6.4h1.9v-1.8h12.4c0.3,0,0.6,0.3,0.6,0.6v0.1c0.3,0.1,0.7,0.2,1,0.3
				v-0.4c0-0.8-0.7-1.5-1.6-1.5h-13L0,191.9v6.9c0,0.8,0.7,1.5,1.6,1.5h7.3C8.6,200,8.4,199.7,8.3,199.4z"/>
		</g>
		<g id="group1062-117_1_" transform="translate(8.44762,2.84217E-14)">
			<title>Sheet.1062</title>
			<g id="group1063-118_1_" transform="translate(0.737786,2.84217E-14)">
				<title>Sheet.1063</title>
				<g id="shape1064-119_1_">
					<title>Sheet.1064</title>
					<path class="st7" d="M7.5,195.9l2.3,3.3l-2.2-0.5l-0.6,1.6l-2.3-2.9L3,200.3l-0.8-1.7L0,199.1l2.1-3.4c0,0,0.6,0.9,2.7,0.9
						C6.9,196.6,7.5,195.9,7.5,195.9z"/>
				</g>
			</g>
			<g id="group1065-121_1_" transform="translate(1.9839,-4.95422)">
				<title>Sheet.1065</title>
				<g id="shape1066-122_1_">
					<title>Sheet.1066</title>
					<path class="st7" d="M3.7,200.3c-2,0-3.7-1.5-3.7-3.4c0-1.9,1.7-3.4,3.7-3.4c2,0,3.7,1.5,3.7,3.4
						C7.4,198.8,5.8,200.3,3.7,200.3z M3.7,194.2c-1.6,0-2.9,1.2-2.9,2.6s1.3,2.6,2.9,2.6c1.6,0,2.9-1.2,2.9-2.6
						S5.3,194.2,3.7,194.2z"/>
				</g>
			</g>
			<g id="group1067-124_1_" transform="translate(0,-3.14179)">
				<title>Sheet.1067</title>
				<g id="shape1068-125_1_">
					<title>Sheet.1068</title>
					<path class="st7" d="M5.7,200.3c-3.1,0-5.7-2.3-5.7-5.2c0-2.9,2.6-5.2,5.7-5.2s5.7,2.3,5.7,5.2C11.4,198,8.8,200.3,5.7,200.3z
						 M5.7,190.6c-2.7,0-4.9,2-4.9,4.5c0,2.5,2.2,4.5,4.9,4.5s4.9-2,4.9-4.5C10.6,192.6,8.4,190.6,5.7,190.6z"/>
				</g>
			</g>
		</g>
	</g>
</g>
</svg>
