<svg xmlns="http://www.w3.org/2000/svg" viewBox="0 0 224.4 98.83"><defs><style>.cls-1{fill:#0078d7;}.cls-2,.cls-3{fill:#008bfd;}.cls-3{stroke:gray;stroke-linecap:round;stroke-linejoin:round;stroke-width:0.75px;}.cls-4{fill:#fff;}.cls-5{fill:#505050;}.cls-6{fill:#00b0f0;}</style></defs><title>OJ104544462</title><g id="shapes"><g id="shape1172-2"><path class="cls-1" d="M60.23,66.79H46V38.41H60.23v7.68H61V37.65H45.26v29.9H61V65.23h-.76Z"/></g><g id="shape1173-4"><path class="cls-1" d="M59.47,39.21H46.83v4.58H59.47Zm-9.58,1.91h6.53v.76H49.89ZM56.48,43H49.86V42.2h6.62Z"/></g><g id="shape1174-6"><path class="cls-1" d="M46.79,44.57v3h8.6V46.1h4.08V44.57Z"/></g><g id="shape1175-8"><rect class="cls-1" x="46.79" y="48.38" width="8.6" height="2.68"/></g><g id="shape1176-10"><path class="cls-1" d="M46.79,66H59.44v-.79H55.36V51.85h-8.6V66Zm1.53-2.73h2.29V64.5H48.32Z"/></g><g id="shape1177-12"><path class="cls-1" d="M70,63H67.55V61.09H65V63H62.59a1.32,1.32,0,0,0-1.31,1.14h10C71.35,63.54,70.68,63,70,63Z"/></g><g id="shape1178-14"><path class="cls-1" d="M74.85,49H57.75a.64.64,0,0,0-.67.6V59.72a.64.64,0,0,0,.67.6h17.1a.64.64,0,0,0,.67-.6V49.59A.62.62,0,0,0,74.85,49Zm-1,9.84H58.77V50.52H73.83Z"/></g><g id="shape1179-16"><path class="cls-1" d="M70.21,56.35V52.91L66.7,51.06l-3.5,1.78v3.54l3.5,1.81Zm-4.4-2.3.89-.44.86.44-.86.48Zm0-1.14.86-.45.86.45-.86.48Zm1.91,4.52-1,.51V57l1-.51Zm0-1.18-1,.51v-.92l1-.51Zm0-1.11-1,.51v-.93l1-.51Zm-.82-1.66.86-.44.89.44-.86.45Zm2,3.35-1,.5v-.92l1-.51Zm0-1.18-1,.51v-.93l1-.51Zm0-1.15L68,55v-.89l1-.51Zm1,1.75-.86.45v-.93l.86-.44Zm0-1.14-.86.44v-.92l.86-.45ZM70,54l-.86.44v-.92L70,53Zm-.19-1.05-.89.44L68,52.91l.86-.45Zm-1.11-.58-.89.45-.86-.45.86-.44Zm-2-1,.86.45-.86.45-.89-.45Zm-1.11.61.86.44-.86.45-.86-.45Zm-1.08.57.89.45-.89.44-.9-.44Zm-.26,4.27-.86-.45v-.92l.86.45Zm0-1.18-.86-.44v-.93l.86.45Zm0-1.15L63.39,54v-.89l.86.44Zm1.18,2.93-1-.5V55.9l1,.51Zm0-1.17-1-.51v-.93l1,.51Zm0-1.15-1-.51v-.89l1,.51Zm-.7-1.53.89-.44.86.44-.89.48Zm1.88,4.46-1-.51v-.89l1,.51Zm0-1.15-1-.51v-.92l1,.51Zm0-1.14-1-.51v-.93l1,.51Z"/></g><g id="group1180-20"><g id="group1181-21"><g id="group1182-22"><g id="group1183-23"><g id="shape1184-24"><path class="cls-2" d="M7.85,44.76a4.5,4.5,0,0,0-3,5.67c.66,2.55,3,4.21,5.27,3.66a4.49,4.49,0,0,0,3-5.66C12.57,45.76,10.16,44.1,7.85,44.76Z"/></g></g><g id="group1185-26"><g id="shape1186-27"><path class="cls-2" d="M12.78,54.78c-.43,0-.88.77-1.54,1.11s-1.31.89-3.17,0S6,54.22,4.43,54.22s-4,2.78-4,6.88H16a12.15,12.15,0,0,0-1.11-4.21C13.77,54.78,13.23,54.78,12.78,54.78Z"/></g></g></g></g><g id="group1187-29"><g id="shape1188-30"><path class="cls-3" d="M14.19,49.84H10.07a.7.7,0,0,0-.65.65v2.85a.73.73,0,0,0,.76.66h.76v5.15a1,1,0,0,0,1,1.09,1,1,0,0,0,1-1h.21V58.6c0-.22.33-.33.33-.33v-.33c-.33-.11-.54-.32-.54-.43v-.33L13.1,57a3.53,3.53,0,0,0,.33-.55,2.4,2.4,0,0,1-.33-.55c-.1-.11-.1-.33-.21-.44V55.2a2.52,2.52,0,0,1,.76-1.09h.54a.71.71,0,0,0,.65-.66v-3A.62.62,0,0,0,14.19,49.84ZM11.8,59.37c0,.22,0,.33-.21.33s-.22-.22-.22-.33V54.55c0-.22.11-.33.22-.33s.21.22.21.33Zm.33-7.78a.66.66,0,0,1,0-1.32.71.71,0,0,1,.65.66A.63.63,0,0,1,12.13,51.59Z"/></g><g id="shape1189-32"><path class="cls-4" d="M11.57,59.67a.24.24,0,0,1-.22-.22v-5a.22.22,0,0,1,.44,0v5.1C11.79,59.67,11.68,59.67,11.57,59.67Z"/></g><g id="shape1190-34"><ellipse class="cls-4" cx="12.14" cy="50.92" rx="0.66" ry="0.67"/></g></g></g><path class="cls-2" d="M191.76,41.68h-20.5a1.1,1.1,0,0,0-1.09,1.11V59.53a1.09,1.09,0,0,0,1.09,1.1h5.28a3.29,3.29,0,0,0,3.21,2.27,3.37,3.37,0,0,0,0-6.74,3.29,3.29,0,0,0-3.21,2.27h-4.19v-12h18.31v12h-3.45a7.61,7.61,0,0,0-7.46-6.57,8.25,8.25,0,0,0-3.64.92l1,2a5.28,5.28,0,0,1,2.55-.68,5.46,5.46,0,0,1,0,10.92,5.28,5.28,0,0,1-2.55-.68l-1,2a7.4,7.4,0,0,0,3.64.92,7.61,7.61,0,0,0,7.46-6.56h4.55a1.09,1.09,0,0,0,1.09-1.1V42.79A1.14,1.14,0,0,0,191.76,41.68Z"/><g id="shape1192-39"><g id="lend5"><path class="cls-5" d="M161.69,50.43l8.05,4-8,4a9,9,0,0,0,0-8"/></g></g></g><g id="text"><path d="M169.39,80.2h-.91l-.74-2h-3l-.7,2h-.91l2.68-7h.85Zm-1.92-2.7-1.1-3c0-.1-.07-.26-.11-.47h0a2.74,2.74,0,0,1-.11.47l-1.09,3Z"/><path d="M171.24,77.55V80.2h-.82v-7h1.92a2.51,2.51,0,0,1,1.74.55,1.92,1.92,0,0,1,.62,1.54,2.14,2.14,0,0,1-.68,1.63,2.65,2.65,0,0,1-1.86.63Zm0-3.61v2.87h.86a2,2,0,0,0,1.3-.38,1.41,1.41,0,0,0,.44-1.1c0-.93-.55-1.39-1.64-1.39Z"/><path d="M176.84,80.2H176v-7h.82Z"/><path d="M181.13,77.73h-2.66V77.1h2.66Z"/><path d="M188.1,80.2h-.91l-.74-2h-3l-.7,2h-.91l2.68-7h.85Zm-1.92-2.7-1.1-3c0-.1-.07-.26-.11-.47h0a2.63,2.63,0,0,1-.12.47l-1.09,3Z"/><path d="M189.84,79.48h0v3H189V75.2h.8v.88h0a1.91,1.91,0,0,1,1.73-1,1.82,1.82,0,0,1,1.51.68,2.75,2.75,0,0,1,.54,1.79,3.07,3.07,0,0,1-.61,2,2,2,0,0,1-1.67.76A1.67,1.67,0,0,1,189.84,79.48Zm0-2v.7a1.47,1.47,0,0,0,.41,1,1.33,1.33,0,0,0,1,.43,1.35,1.35,0,0,0,1.14-.55,2.6,2.6,0,0,0,.41-1.55,2.06,2.06,0,0,0-.38-1.31,1.3,1.3,0,0,0-1-.47,1.42,1.42,0,0,0-1.12.48A1.77,1.77,0,0,0,189.82,77.46Z"/><path d="M195.72,79.48h0v3h-.8V75.2h.8v.88h0a1.91,1.91,0,0,1,1.73-1,1.84,1.84,0,0,1,1.51.68,2.75,2.75,0,0,1,.54,1.79,3.07,3.07,0,0,1-.61,2,2,2,0,0,1-1.67.76A1.67,1.67,0,0,1,195.72,79.48Zm0-2v.7a1.47,1.47,0,0,0,.41,1,1.3,1.3,0,0,0,1,.43,1.35,1.35,0,0,0,1.14-.55,2.6,2.6,0,0,0,.41-1.55,2,2,0,0,0-.39-1.31,1.27,1.27,0,0,0-1-.47,1.42,1.42,0,0,0-1.12.48A1.77,1.77,0,0,0,195.7,77.46Z"/><path d="M31.64,77.89v-7h1.93q3.7,0,3.7,3.41a3.44,3.44,0,0,1-1,2.61,3.82,3.82,0,0,1-2.75,1Zm.82-6.26v5.52h1a3,3,0,0,0,2.14-.74,2.73,2.73,0,0,0,.77-2.09c0-1.79-.95-2.69-2.86-2.69Z"/><path d="M42.58,75.59H39.05a1.83,1.83,0,0,0,.45,1.29,1.55,1.55,0,0,0,1.18.46,2.46,2.46,0,0,0,1.55-.56v.75a2.89,2.89,0,0,1-1.74.48,2.14,2.14,0,0,1-1.67-.68,2.81,2.81,0,0,1-.6-1.92,2.73,2.73,0,0,1,.66-1.9,2.12,2.12,0,0,1,1.64-.74,1.89,1.89,0,0,1,1.52.64,2.63,2.63,0,0,1,.54,1.76Zm-.82-.68a1.68,1.68,0,0,0-.34-1.08,1.15,1.15,0,0,0-.91-.38,1.28,1.28,0,0,0-1,.4,1.81,1.81,0,0,0-.49,1.06Z"/><path d="M43.51,77.71v-.86a2.36,2.36,0,0,0,1.44.49c.7,0,1-.24,1-.71a.64.64,0,0,0-.09-.34.91.91,0,0,0-.24-.24,2.08,2.08,0,0,0-.36-.2l-.45-.17a5.37,5.37,0,0,1-.58-.27,1.74,1.74,0,0,1-.42-.3,1.11,1.11,0,0,1-.26-.39,1.28,1.28,0,0,1-.08-.5,1.17,1.17,0,0,1,.16-.62,1.44,1.44,0,0,1,.43-.46,2,2,0,0,1,.61-.27,2.83,2.83,0,0,1,.71-.1,2.86,2.86,0,0,1,1.16.23v.81a2.27,2.27,0,0,0-1.27-.36,1.62,1.62,0,0,0-.4,0,.89.89,0,0,0-.31.14.62.62,0,0,0-.2.23.53.53,0,0,0-.07.28.67.67,0,0,0,.07.33.62.62,0,0,0,.2.23,2.17,2.17,0,0,0,.34.19l.44.18a5.68,5.68,0,0,1,.6.26,2.52,2.52,0,0,1,.45.3,1.33,1.33,0,0,1,.28.39,1.21,1.21,0,0,1,.1.52,1.23,1.23,0,0,1-.16.65,1.45,1.45,0,0,1-.44.45,2,2,0,0,1-.63.27,3.08,3.08,0,0,1-.75.09A2.78,2.78,0,0,1,43.51,77.71Z"/><path d="M52.22,77.89H51.1l-2.21-2.4h0v2.4h-.8v-7.4h.8v4.69h0L51,72.89h1L49.72,75.3Z"/><path d="M55.38,77.84a1.48,1.48,0,0,1-.74.16q-1.32,0-1.32-1.47v-3h-.86v-.69h.86V71.67l.8-.26v1.48h1.26v.69H54.12v2.81a1.19,1.19,0,0,0,.17.72.72.72,0,0,0,.57.22.83.83,0,0,0,.52-.17Z"/><path d="M58.56,78a2.31,2.31,0,0,1-1.77-.7,2.61,2.61,0,0,1-.66-1.86,2.72,2.72,0,0,1,.69-2,2.49,2.49,0,0,1,1.86-.71,2.22,2.22,0,0,1,1.74.69,2.73,2.73,0,0,1,.63,1.91,2.69,2.69,0,0,1-.67,1.92A2.39,2.39,0,0,1,58.56,78Zm.06-4.56A1.52,1.52,0,0,0,57.4,74,2.17,2.17,0,0,0,57,75.42a2,2,0,0,0,.45,1.4,1.57,1.57,0,0,0,1.22.52,1.43,1.43,0,0,0,1.19-.51,2.16,2.16,0,0,0,.42-1.43A2.21,2.21,0,0,0,59.81,74,1.43,1.43,0,0,0,58.62,73.45Z"/><path d="M63.17,77.17h0v3h-.8v-7.3h.8v.88h0a1.91,1.91,0,0,1,1.73-1,1.84,1.84,0,0,1,1.51.68,2.76,2.76,0,0,1,.54,1.8,3.11,3.11,0,0,1-.61,2,2,2,0,0,1-1.67.75A1.67,1.67,0,0,1,63.17,77.17Zm0-2v.7a1.51,1.51,0,0,0,.4,1.05,1.43,1.43,0,0,0,2.17-.12,2.6,2.6,0,0,0,.41-1.55,2,2,0,0,0-.39-1.31,1.27,1.27,0,0,0-1-.47,1.41,1.41,0,0,0-1.12.48A1.77,1.77,0,0,0,63.15,75.15Z"/><path d="M70.81,75.42H68.14v-.63h2.67Z"/><path d="M77.8,77.89h-.91l-.74-2h-3l-.7,2h-.91l2.68-7h.85Zm-1.92-2.7-1.1-3a3,3,0,0,1-.11-.47h0a2.74,2.74,0,0,1-.11.47l-1.09,3Z"/><path d="M79.56,77.17h0v3h-.8v-7.3h.8v.88h0a1.9,1.9,0,0,1,1.73-1,1.84,1.84,0,0,1,1.51.68,2.76,2.76,0,0,1,.54,1.8,3.11,3.11,0,0,1-.61,2,2,2,0,0,1-1.67.75A1.67,1.67,0,0,1,79.56,77.17Zm0-2v.7a1.47,1.47,0,0,0,.4,1.05,1.43,1.43,0,0,0,2.17-.12,2.6,2.6,0,0,0,.41-1.55,2,2,0,0,0-.39-1.31,1.27,1.27,0,0,0-1-.47,1.44,1.44,0,0,0-1.13.48A1.81,1.81,0,0,0,79.54,75.15Z"/><path d="M85.46,77.17h0v3h-.8v-7.3h.8v.88h0a1.9,1.9,0,0,1,1.73-1,1.85,1.85,0,0,1,1.51.68,2.76,2.76,0,0,1,.54,1.8,3.17,3.17,0,0,1-.61,2A2,2,0,0,1,87,78,1.67,1.67,0,0,1,85.46,77.17Zm0-2v.7a1.47,1.47,0,0,0,.4,1.05,1.34,1.34,0,0,0,1,.44A1.36,1.36,0,0,0,88,76.78a2.6,2.6,0,0,0,.41-1.55A2,2,0,0,0,88,73.92a1.28,1.28,0,0,0-1-.47,1.44,1.44,0,0,0-1.13.48A1.81,1.81,0,0,0,85.44,75.15Z"/><path class="cls-6" d="M45.94,6.52h-5V5.89h5Z"/><path class="cls-6" d="M55,9h-.91l-.74-2h-3l-.7,2h-.91l2.68-7h.85ZM53.1,6.3l-1.1-3a4.26,4.26,0,0,1-.11-.47h0a2.53,2.53,0,0,1-.11.47l-1.09,3Z"/><path class="cls-6" d="M60,9h-.81V8.2h0a1.65,1.65,0,0,1-1.55.91c-1.19,0-1.79-.71-1.79-2.13V4h.8V6.86c0,1,.4,1.58,1.21,1.58a1.27,1.27,0,0,0,1-.43,1.67,1.67,0,0,0,.37-1.13V4H60Z"/><path class="cls-6" d="M63.92,9a1.61,1.61,0,0,1-.75.15c-.87,0-1.31-.49-1.31-1.46v-3H61V4h.86V2.77l.8-.25V4h1.26v.68H62.66V7.5a1.17,1.17,0,0,0,.17.71.67.67,0,0,0,.57.22.85.85,0,0,0,.52-.17Z"/><path class="cls-6" d="M67.08,9.11a2.31,2.31,0,0,1-1.77-.7,2.6,2.6,0,0,1-.66-1.86,2.68,2.68,0,0,1,.69-2,2.45,2.45,0,0,1,1.86-.71,2.24,2.24,0,0,1,1.74.69,2.72,2.72,0,0,1,.63,1.91,2.69,2.69,0,0,1-.68,1.91A2.36,2.36,0,0,1,67.08,9.11Zm.06-4.56a1.52,1.52,0,0,0-1.22.53,2.14,2.14,0,0,0-.45,1.44,2.08,2.08,0,0,0,.45,1.41,1.56,1.56,0,0,0,1.22.51,1.47,1.47,0,0,0,1.19-.5,2.2,2.2,0,0,0,.42-1.43,2.22,2.22,0,0,0-.42-1.45A1.45,1.45,0,0,0,67.14,4.55Z"/><path class="cls-6" d="M73.46,4.81a1,1,0,0,0-.61-.17,1,1,0,0,0-.85.49,2.22,2.22,0,0,0-.35,1.32V9h-.8V4h.8V5h0a1.74,1.74,0,0,1,.52-.83A1.24,1.24,0,0,1,73,3.91a1.22,1.22,0,0,1,.48.07Z"/><path class="cls-6" d="M74.74,2.73a.51.51,0,0,1-.52-.52.52.52,0,0,1,.15-.38.53.53,0,0,1,.37-.14.55.55,0,0,1,.37.14.52.52,0,0,1,.15.38.49.49,0,0,1-.15.36A.49.49,0,0,1,74.74,2.73ZM75.13,9h-.8V4h.8Z"/><path class="cls-6" d="M76.45,8.81V8a2.35,2.35,0,0,0,1.44.48c.7,0,1-.24,1-.7a.59.59,0,0,0-.09-.34.82.82,0,0,0-.24-.25A2,2,0,0,0,78.25,7l-.45-.18c-.22-.09-.42-.18-.59-.27a2.25,2.25,0,0,1-.42-.3,1.19,1.19,0,0,1-.25-.38,1.33,1.33,0,0,1-.08-.51,1.17,1.17,0,0,1,.16-.62,1.32,1.32,0,0,1,.43-.45A1.71,1.71,0,0,1,77.66,4a2.82,2.82,0,0,1,.71-.09,2.86,2.86,0,0,1,1.16.22v.81a2.27,2.27,0,0,0-1.27-.36,1.62,1.62,0,0,0-.4,0,1.12,1.12,0,0,0-.31.15.53.53,0,0,0-.2.22.57.57,0,0,0-.07.29.63.63,0,0,0,.07.32.64.64,0,0,0,.2.24,1.79,1.79,0,0,0,.34.18l.44.18c.22.09.42.17.6.26a2.11,2.11,0,0,1,.45.31,1.29,1.29,0,0,1,.28.38,1.25,1.25,0,0,1,.1.53,1.22,1.22,0,0,1-.16.64,1.48,1.48,0,0,1-.44.46,1.78,1.78,0,0,1-.63.26,3.08,3.08,0,0,1-.75.09A2.78,2.78,0,0,1,76.45,8.81Z"/><path class="cls-6" d="M81.4,2.73A.49.49,0,0,1,81,2.58a.47.47,0,0,1-.16-.37A.49.49,0,0,1,81,1.83a.52.52,0,0,1,.36-.14.57.57,0,0,1,.38.14.52.52,0,0,1,.15.38.49.49,0,0,1-.15.36A.51.51,0,0,1,81.4,2.73ZM81.79,9H81V4h.8Z"/><path class="cls-6" d="M87.43,6.7H83.9A1.82,1.82,0,0,0,84.35,8a1.53,1.53,0,0,0,1.18.46,2.44,2.44,0,0,0,1.55-.56v.75a2.87,2.87,0,0,1-1.74.48,2.09,2.09,0,0,1-1.66-.68,2.75,2.75,0,0,1-.61-1.92,2.75,2.75,0,0,1,.66-1.9,2.12,2.12,0,0,1,1.65-.73,1.86,1.86,0,0,1,1.51.63,2.66,2.66,0,0,1,.54,1.77ZM86.61,6a1.6,1.6,0,0,0-.33-1.08,1.14,1.14,0,0,0-.92-.39,1.28,1.28,0,0,0-1,.41A1.84,1.84,0,0,0,83.91,6Z"/><path class="cls-6" d="M91.25,4.81a1,1,0,0,0-.61-.17,1,1,0,0,0-.85.49,2.22,2.22,0,0,0-.35,1.32V9h-.8V4h.8V5h0A1.76,1.76,0,0,1,90,4.2a1.2,1.2,0,0,1,.78-.29,1.22,1.22,0,0,1,.48.07Z"/><path class="cls-6" d="M96.16,9h-.8V8.2h0a1.63,1.63,0,0,1-1.54.91C92.61,9.11,92,8.4,92,7V4h.8V6.86c0,1,.4,1.58,1.21,1.58A1.24,1.24,0,0,0,95,8a1.63,1.63,0,0,0,.38-1.13V4h.8Z"/><path class="cls-6" d="M101.93,9h-.8V6.14c0-1.06-.39-1.59-1.16-1.59A1.27,1.27,0,0,0,99,5a1.68,1.68,0,0,0-.39,1.14V9h-.8V4h.8v.83h0a1.79,1.79,0,0,1,1.64-1,1.5,1.5,0,0,1,1.25.53,2.35,2.35,0,0,1,.44,1.53Z"/><path class="cls-6" d="M107.71,8.59q0,2.76-2.64,2.76a3.58,3.58,0,0,1-1.62-.35v-.8a3.35,3.35,0,0,0,1.61.47c1.23,0,1.84-.66,1.84-2V8.16h0a2,2,0,0,1-3.21.29,2.69,2.69,0,0,1-.57-1.79,3.11,3.11,0,0,1,.61-2,2.06,2.06,0,0,1,1.68-.75,1.61,1.61,0,0,1,1.49.81h0V4h.81Zm-.81-1.86V6a1.41,1.41,0,0,0-.4-1,1.3,1.3,0,0,0-1-.43,1.38,1.38,0,0,0-1.16.54,2.4,2.4,0,0,0-.42,1.51,2.08,2.08,0,0,0,.4,1.34,1.31,1.31,0,0,0,1.07.5A1.39,1.39,0,0,0,106.48,8,1.8,1.8,0,0,0,106.9,6.73Z"/><path class="cls-6" d="M109,8.81V8a2.4,2.4,0,0,0,1.44.48c.71,0,1.06-.24,1.06-.7a.59.59,0,0,0-.09-.34.75.75,0,0,0-.25-.25,1.52,1.52,0,0,0-.36-.19l-.44-.18a5.6,5.6,0,0,1-.59-.27,2.25,2.25,0,0,1-.42-.3,1.19,1.19,0,0,1-.25-.38,1.33,1.33,0,0,1-.09-.51,1.27,1.27,0,0,1,.16-.62,1.54,1.54,0,0,1,.43-.45,1.84,1.84,0,0,1,.62-.28,2.76,2.76,0,0,1,.71-.09,2.86,2.86,0,0,1,1.16.22v.81a2.27,2.27,0,0,0-1.27-.36,1.7,1.7,0,0,0-.41,0,1.05,1.05,0,0,0-.3.15.63.63,0,0,0-.21.22.69.69,0,0,0-.07.29.76.76,0,0,0,.07.32.79.79,0,0,0,.21.24,1.69,1.69,0,0,0,.33.18l.45.18c.22.09.42.17.59.26a1.7,1.7,0,0,1,.45.31,1.17,1.17,0,0,1,.29.38,1.25,1.25,0,0,1,.1.53,1.32,1.32,0,0,1-.16.64,1.48,1.48,0,0,1-.44.46,1.78,1.78,0,0,1-.63.26,3.08,3.08,0,0,1-.75.09A2.85,2.85,0,0,1,109,8.81Z"/><path class="cls-6" d="M117,8.77a2.63,2.63,0,0,1-1.37.34,2.29,2.29,0,0,1-1.73-.69,2.57,2.57,0,0,1-.65-1.81,2.73,2.73,0,0,1,.71-2,2.47,2.47,0,0,1,1.89-.75,2.7,2.7,0,0,1,1.16.24v.82a2,2,0,0,0-1.19-.39,1.64,1.64,0,0,0-1.26.55,2.08,2.08,0,0,0-.49,1.44,2,2,0,0,0,.46,1.39,1.59,1.59,0,0,0,1.24.51A2,2,0,0,0,117,8Z"/><path class="cls-6" d="M120.28,9.11a2.31,2.31,0,0,1-1.77-.7,2.6,2.6,0,0,1-.66-1.86,2.68,2.68,0,0,1,.69-2,2.42,2.42,0,0,1,1.86-.71,2.24,2.24,0,0,1,1.74.69,2.72,2.72,0,0,1,.63,1.91,2.69,2.69,0,0,1-.68,1.91A2.36,2.36,0,0,1,120.28,9.11Zm.06-4.56a1.52,1.52,0,0,0-1.22.53,2.14,2.14,0,0,0-.45,1.44,2.08,2.08,0,0,0,.45,1.41,1.55,1.55,0,0,0,1.22.51,1.48,1.48,0,0,0,1.19-.5A2.2,2.2,0,0,0,122,6.51a2.22,2.22,0,0,0-.42-1.45A1.46,1.46,0,0,0,120.34,4.55Z"/><path class="cls-6" d="M128.32,9h-.81V8.15h0a2,2,0,0,1-3.23.29,2.74,2.74,0,0,1-.56-1.83,3,3,0,0,1,.62-2A2.06,2.06,0,0,1,126,3.88a1.62,1.62,0,0,1,1.5.81h0V1.59h.81Zm-.81-2.27V6a1.42,1.42,0,0,0-.4-1,1.32,1.32,0,0,0-1-.42,1.37,1.37,0,0,0-1.15.54,2.35,2.35,0,0,0-.42,1.48,2.13,2.13,0,0,0,.4,1.37,1.33,1.33,0,0,0,1.08.5A1.38,1.38,0,0,0,127.1,8,1.81,1.81,0,0,0,127.51,6.73Z"/><path class="cls-6" d="M134,6.7h-3.54A1.92,1.92,0,0,0,130.87,8a1.54,1.54,0,0,0,1.19.46,2.46,2.46,0,0,0,1.55-.56v.75a2.89,2.89,0,0,1-1.74.48,2.09,2.09,0,0,1-1.67-.68,2.8,2.8,0,0,1-.61-1.92,2.75,2.75,0,0,1,.67-1.9,2.12,2.12,0,0,1,1.64-.73,1.9,1.9,0,0,1,1.52.63A2.66,2.66,0,0,1,134,6.28ZM133.13,6a1.6,1.6,0,0,0-.33-1.08,1.13,1.13,0,0,0-.92-.39,1.32,1.32,0,0,0-1,.41A1.91,1.91,0,0,0,130.43,6Z"/><path class="cls-6" d="M137.64,2.3a1.09,1.09,0,0,0-.54-.14c-.56,0-.84.36-.84,1.06V4h1.18v.68h-1.18V9h-.79V4.68h-.86V4h.86V3.18a1.7,1.7,0,0,1,.45-1.24,1.56,1.56,0,0,1,1.14-.45,1.59,1.59,0,0,1,.58.08Z"/><path class="cls-6" d="M139.1,9h-.8V1.59h.8Z"/><path class="cls-6" d="M142.81,9.11a2.31,2.31,0,0,1-1.77-.7,2.6,2.6,0,0,1-.66-1.86,2.72,2.72,0,0,1,.68-2,2.45,2.45,0,0,1,1.86-.71,2.25,2.25,0,0,1,1.75.69,2.72,2.72,0,0,1,.63,1.91,2.69,2.69,0,0,1-.68,1.91A2.36,2.36,0,0,1,142.81,9.11Zm.06-4.56a1.52,1.52,0,0,0-1.22.53,2.14,2.14,0,0,0-.45,1.44,2.08,2.08,0,0,0,.45,1.41,1.55,1.55,0,0,0,1.22.51,1.48,1.48,0,0,0,1.19-.5,2.2,2.2,0,0,0,.42-1.43,2.22,2.22,0,0,0-.42-1.45A1.46,1.46,0,0,0,142.87,4.55Z"/><path class="cls-6" d="M152.88,4l-1.5,5h-.83l-1-3.58a2.19,2.19,0,0,1-.08-.47h0a2.15,2.15,0,0,1-.1.46L148.2,9h-.8l-1.52-5h.84l1,3.76a3.13,3.13,0,0,1,.07.44h0a2.67,2.67,0,0,1,.08-.45L149.11,4h.73l1,3.76a2.44,2.44,0,0,1,.08.45h0a1.78,1.78,0,0,1,.08-.45l1-3.76Z"/><path class="cls-6" d="M158.64,10.59h-.71a6.26,6.26,0,0,1-1.51-4.27A6.47,6.47,0,0,1,157.93,2h.72a6.6,6.6,0,0,0-1.53,4.32A6.5,6.5,0,0,0,158.64,10.59Z"/><path class="cls-6" d="M166.66,9h-.8V6.12a2.18,2.18,0,0,0-.26-1.2,1,1,0,0,0-.86-.37,1.08,1.08,0,0,0-.87.47,1.79,1.79,0,0,0-.36,1.12V9h-.8V6c0-1-.38-1.48-1.14-1.48a1.07,1.07,0,0,0-.87.44,1.89,1.89,0,0,0-.34,1.15V9h-.8V4h.8v.79h0a1.69,1.69,0,0,1,1.55-.91,1.46,1.46,0,0,1,.9.28,1.48,1.48,0,0,1,.52.75,1.77,1.77,0,0,1,1.66-1c1.1,0,1.65.68,1.65,2Z"/><path class="cls-6" d="M168.58,2.73a.49.49,0,0,1-.36-.15.5.5,0,0,1-.15-.37.5.5,0,0,1,.51-.52.56.56,0,0,1,.38.14.52.52,0,0,1,.15.38.53.53,0,0,1-.53.52ZM169,9h-.8V4h.8Z"/><path class="cls-6" d="M172.92,9a1.61,1.61,0,0,1-.75.15c-.88,0-1.32-.49-1.32-1.46v-3H170V4h.85V2.77l.81-.25V4h1.26v.68h-1.26V7.5a1.11,1.11,0,0,0,.17.71.65.65,0,0,0,.56.22.88.88,0,0,0,.53-.17Z"/><path class="cls-6" d="M177.65,6.35V9h-.82V2h1.92a2.6,2.6,0,0,1,1.75.55,2,2,0,0,1,.61,1.54,2.13,2.13,0,0,1-.68,1.63,2.61,2.61,0,0,1-1.86.64Zm0-3.61V5.61h.86a1.92,1.92,0,0,0,1.3-.39,1.38,1.38,0,0,0,.44-1.1c0-.92-.54-1.38-1.64-1.38Z"/><path class="cls-6" d="M187.3,9h-1.14l-2.7-3.21a2.21,2.21,0,0,1-.19-.24h0V9h-.82V2h.82V5.28h0a1.77,1.77,0,0,1,.19-.23L186.07,2h1l-3,3.36Z"/><path class="cls-6" d="M192.56,8.7a4,4,0,0,1-1.93.41,3.13,3.13,0,0,1-2.4-1,3.54,3.54,0,0,1-.9-2.52,3.75,3.75,0,0,1,1-2.72,3.44,3.44,0,0,1,2.57-1,4.18,4.18,0,0,1,1.65.28V3a3.36,3.36,0,0,0-1.66-.42,2.57,2.57,0,0,0-2,.8,3.05,3.05,0,0,0-.75,2.16,2.94,2.94,0,0,0,.7,2,2.41,2.41,0,0,0,1.84.76,3.48,3.48,0,0,0,1.83-.47Z"/><path class="cls-6" d="M197.7,9H194V2h3.56v.75H194.8V5.06h2.53V5.8H194.8V8.25h2.9Z"/><path class="cls-6" d="M199,10.59h-.72a6.46,6.46,0,0,0,1.53-4.28A6.61,6.61,0,0,0,198.23,2H199a6.48,6.48,0,0,1,1.52,4.33A6.27,6.27,0,0,1,199,10.59Z"/><path class="cls-6" d="M45.94,18.52h-5v-.63h5Z"/><path class="cls-6" d="M50.42,21H49.6V14h.82Z"/><path class="cls-6" d="M56.3,21h-.8V18.14c0-1.06-.38-1.59-1.16-1.59a1.25,1.25,0,0,0-1,.45,1.64,1.64,0,0,0-.4,1.14V21h-.8V16H53v.83h0a1.8,1.8,0,0,1,1.64-.95,1.52,1.52,0,0,1,1.26.53,2.34,2.34,0,0,1,.43,1.53Z"/><path class="cls-6" d="M60.13,21a1.61,1.61,0,0,1-.75.15c-.87,0-1.31-.49-1.31-1.46v-3h-.86V16h.86V14.77l.8-.25V16h1.26v.68H58.87V19.5a1.17,1.17,0,0,0,.17.71.68.68,0,0,0,.57.22.83.83,0,0,0,.52-.17Z"/><path class="cls-6" d="M65.22,18.7H61.69A1.82,1.82,0,0,0,62.14,20a1.52,1.52,0,0,0,1.18.46,2.46,2.46,0,0,0,1.55-.56v.75a2.89,2.89,0,0,1-1.74.48,2.11,2.11,0,0,1-1.67-.68,2.8,2.8,0,0,1-.6-1.92,2.75,2.75,0,0,1,.66-1.9,2.12,2.12,0,0,1,1.64-.73,1.88,1.88,0,0,1,1.52.63,2.66,2.66,0,0,1,.54,1.77ZM64.4,18a1.6,1.6,0,0,0-.33-1.08,1.14,1.14,0,0,0-.92-.39,1.28,1.28,0,0,0-1,.41A1.78,1.78,0,0,0,61.7,18Z"/><path class="cls-6" d="M70.7,20.59q0,2.76-2.64,2.76A3.58,3.58,0,0,1,66.44,23v-.8a3.35,3.35,0,0,0,1.61.47c1.23,0,1.85-.66,1.85-2v-.54h0a2,2,0,0,1-3.22.29,2.69,2.69,0,0,1-.57-1.79,3.11,3.11,0,0,1,.61-2,2.06,2.06,0,0,1,1.68-.75,1.64,1.64,0,0,1,1.5.81h0V16h.8Zm-.8-1.86V18a1.45,1.45,0,0,0-.4-1,1.32,1.32,0,0,0-1-.43,1.39,1.39,0,0,0-1.16.54,2.4,2.4,0,0,0-.42,1.51,2.08,2.08,0,0,0,.4,1.34,1.32,1.32,0,0,0,1.07.5,1.41,1.41,0,0,0,1.1-.48A1.8,1.8,0,0,0,69.9,18.73Z"/><path class="cls-6" d="M74.93,16.81a1,1,0,0,0-.61-.17,1,1,0,0,0-.86.49,2.3,2.3,0,0,0-.34,1.32V21h-.8V16h.8v1h0a1.74,1.74,0,0,1,.52-.83,1.24,1.24,0,0,1,.79-.29,1.22,1.22,0,0,1,.48.07Z"/><path class="cls-6" d="M76.21,14.73a.51.51,0,0,1-.52-.52.52.52,0,0,1,.15-.38.53.53,0,0,1,.37-.14.55.55,0,0,1,.37.14.52.52,0,0,1,.15.38.49.49,0,0,1-.15.36A.49.49,0,0,1,76.21,14.73ZM76.6,21h-.8V16h.8Z"/><path class="cls-6" d="M82.24,18.7H78.71A1.82,1.82,0,0,0,79.16,20a1.52,1.52,0,0,0,1.18.46,2.46,2.46,0,0,0,1.55-.56v.75a2.89,2.89,0,0,1-1.74.48,2.09,2.09,0,0,1-1.67-.68,2.8,2.8,0,0,1-.6-1.92,2.75,2.75,0,0,1,.66-1.9,2.12,2.12,0,0,1,1.64-.73,1.9,1.9,0,0,1,1.52.63,2.66,2.66,0,0,1,.54,1.77ZM81.42,18a1.66,1.66,0,0,0-.34-1.08,1.12,1.12,0,0,0-.91-.39,1.32,1.32,0,0,0-1,.41A1.83,1.83,0,0,0,78.72,18Z"/><path class="cls-6" d="M86.05,16.81a.93.93,0,0,0-.6-.17,1,1,0,0,0-.86.49,2.23,2.23,0,0,0-.34,1.32V21h-.8V16h.8v1h0a1.74,1.74,0,0,1,.52-.83,1.22,1.22,0,0,1,.79-.29,1.19,1.19,0,0,1,.47.07Z"/><path class="cls-6" d="M89.24,21a1.57,1.57,0,0,1-.74.15c-.88,0-1.32-.49-1.32-1.46v-3h-.86V16h.86V14.77l.8-.25V16h1.26v.68H88V19.5a1.17,1.17,0,0,0,.17.71.68.68,0,0,0,.57.22.83.83,0,0,0,.52-.17Z"/><path class="cls-6" d="M94.33,18.7H90.8A1.82,1.82,0,0,0,91.25,20a1.53,1.53,0,0,0,1.18.46A2.44,2.44,0,0,0,94,19.88v.75a2.89,2.89,0,0,1-1.74.48,2.09,2.09,0,0,1-1.66-.68A2.75,2.75,0,0,1,90,18.51a2.75,2.75,0,0,1,.66-1.9,2.12,2.12,0,0,1,1.65-.73,1.86,1.86,0,0,1,1.51.63,2.66,2.66,0,0,1,.54,1.77ZM93.51,18a1.6,1.6,0,0,0-.33-1.08,1.14,1.14,0,0,0-.92-.39,1.28,1.28,0,0,0-1,.41A1.84,1.84,0,0,0,90.81,18Z"/><path class="cls-6" d="M106.69,14l-2,7h-1l-1.44-5.12a3.19,3.19,0,0,1-.11-.71h0a3.32,3.32,0,0,1-.13.7L100.6,21h-.95L97.6,14h.9L100,19.36a4,4,0,0,1,.12.71h0a5.41,5.41,0,0,1,.15-.71L101.83,14h.79l1.48,5.41a4.92,4.92,0,0,1,.12.66h0a3.27,3.27,0,0,1,.13-.68L105.8,14Z"/><path class="cls-6" d="M108,14.73a.49.49,0,0,1-.36-.15.51.51,0,0,1-.16-.37.51.51,0,0,1,.52-.52.57.57,0,0,1,.38.14.52.52,0,0,1,.15.38.49.49,0,0,1-.15.36A.51.51,0,0,1,108,14.73Zm.39,6.27h-.8V16h.8Z"/><path class="cls-6" d="M114.19,21h-.8V18.14c0-1.06-.38-1.59-1.16-1.59a1.25,1.25,0,0,0-1,.45,1.68,1.68,0,0,0-.4,1.14V21H110V16h.8v.83h0a1.8,1.8,0,0,1,1.64-.95,1.52,1.52,0,0,1,1.26.53,2.34,2.34,0,0,1,.43,1.53Z"/><path class="cls-6" d="M120,21h-.8v-.85h0a2,2,0,0,1-3.22.29,2.75,2.75,0,0,1-.57-1.83,3,3,0,0,1,.63-2,2,2,0,0,1,1.66-.75,1.6,1.6,0,0,1,1.5.81h0v-3.1h.8Zm-.8-2.27V18a1.42,1.42,0,0,0-.4-1,1.36,1.36,0,0,0-1-.42,1.39,1.39,0,0,0-1.15.54,2.35,2.35,0,0,0-.42,1.48,2.19,2.19,0,0,0,.4,1.37,1.33,1.33,0,0,0,1.09.5,1.37,1.37,0,0,0,1.08-.48A1.82,1.82,0,0,0,119.17,18.73Z"/><path class="cls-6" d="M123.68,21.11a2.31,2.31,0,0,1-1.77-.7,2.6,2.6,0,0,1-.66-1.86,2.68,2.68,0,0,1,.69-2,2.45,2.45,0,0,1,1.86-.71,2.22,2.22,0,0,1,1.74.69,2.72,2.72,0,0,1,.63,1.91,2.68,2.68,0,0,1-.67,1.91A2.39,2.39,0,0,1,123.68,21.11Zm.06-4.56a1.53,1.53,0,0,0-1.22.53,2.14,2.14,0,0,0-.45,1.44,2.08,2.08,0,0,0,.45,1.41,1.56,1.56,0,0,0,1.22.51,1.46,1.46,0,0,0,1.19-.5,2.2,2.2,0,0,0,.42-1.43,2.22,2.22,0,0,0-.42-1.45A1.43,1.43,0,0,0,123.74,16.55Z"/><path class="cls-6" d="M133.75,16l-1.5,5h-.83l-1-3.58a3.06,3.06,0,0,1-.08-.47h0a2.15,2.15,0,0,1-.1.46L129.07,21h-.8l-1.51-5h.84l1,3.76a1.62,1.62,0,0,1,.07.44h0a2,2,0,0,1,.09-.45L130,16h.73l1,3.76a3.91,3.91,0,0,1,.07.45h0a2.39,2.39,0,0,1,.08-.45L133,16Z"/><path class="cls-6" d="M134.38,20.81V20a2.35,2.35,0,0,0,1.44.48c.7,0,1.05-.24,1.05-.7a.59.59,0,0,0-.09-.34.82.82,0,0,0-.24-.25,1.84,1.84,0,0,0-.37-.19l-.44-.18c-.22-.09-.42-.18-.59-.27a2.25,2.25,0,0,1-.42-.3,1.19,1.19,0,0,1-.25-.38,1.33,1.33,0,0,1-.09-.51,1.18,1.18,0,0,1,.17-.62,1.32,1.32,0,0,1,.43-.45,1.71,1.71,0,0,1,.61-.28,2.76,2.76,0,0,1,.71-.09,2.86,2.86,0,0,1,1.16.22v.81a2.27,2.27,0,0,0-1.27-.36,1.62,1.62,0,0,0-.4.05,1.12,1.12,0,0,0-.31.15.53.53,0,0,0-.2.22.57.57,0,0,0-.07.29.63.63,0,0,0,.07.32.64.64,0,0,0,.2.24,1.79,1.79,0,0,0,.34.18l.44.18c.22.09.42.17.6.26a1.82,1.82,0,0,1,.44.31,1.17,1.17,0,0,1,.29.38,1.25,1.25,0,0,1,.1.53,1.22,1.22,0,0,1-.16.64,1.48,1.48,0,0,1-.44.46,1.78,1.78,0,0,1-.63.26,3.08,3.08,0,0,1-.75.09A2.78,2.78,0,0,1,134.38,20.81Z"/><path class="cls-6" d="M141.48,18.52h-2.67v-.63h2.67Z"/><path class="cls-6" d="M148.45,21h-.91l-.74-2h-3l-.7,2h-.91l2.68-7h.85Zm-1.92-2.7-1.1-3a2.75,2.75,0,0,1-.11-.47h0a2.53,2.53,0,0,1-.11.47l-1.09,3Z"/><path class="cls-6" d="M153.41,21h-.8v-.8h0a1.63,1.63,0,0,1-1.54.91c-1.19,0-1.79-.71-1.79-2.13V16h.8v2.86c0,1.05.4,1.58,1.21,1.58a1.24,1.24,0,0,0,1-.43,1.63,1.63,0,0,0,.38-1.13V16h.8Z"/><path class="cls-6" d="M157.35,21a1.61,1.61,0,0,1-.75.15c-.87,0-1.31-.49-1.31-1.46v-3h-.86V16h.86V14.77l.8-.25V16h1.26v.68h-1.26V19.5a1.17,1.17,0,0,0,.17.71.66.66,0,0,0,.57.22.85.85,0,0,0,.52-.17Z"/><path class="cls-6" d="M162.57,21h-.8V18.11c0-1-.39-1.56-1.16-1.56a1.27,1.27,0,0,0-1,.45,1.67,1.67,0,0,0-.4,1.16V21h-.8V13.59h.8v3.24h0a1.8,1.8,0,0,1,1.64-.95c1.12,0,1.69.68,1.69,2Z"/><path class="cls-6" d="M168.1,18.7h-3.53A1.87,1.87,0,0,0,165,20a1.55,1.55,0,0,0,1.19.46,2.46,2.46,0,0,0,1.55-.56v.75a2.89,2.89,0,0,1-1.74.48,2.09,2.09,0,0,1-1.67-.68,2.8,2.8,0,0,1-.6-1.92,2.75,2.75,0,0,1,.66-1.9,2.12,2.12,0,0,1,1.64-.73,1.9,1.9,0,0,1,1.52.63,2.66,2.66,0,0,1,.54,1.77Zm-.82-.68a1.66,1.66,0,0,0-.34-1.08,1.12,1.12,0,0,0-.91-.39,1.32,1.32,0,0,0-1,.41,1.83,1.83,0,0,0-.48,1.06Z"/><path class="cls-6" d="M173.46,21h-.8V18.14q0-1.59-1.17-1.59a1.25,1.25,0,0,0-1,.45,1.68,1.68,0,0,0-.39,1.14V21h-.8V16h.8v.83h0a1.78,1.78,0,0,1,1.64-.95,1.51,1.51,0,0,1,1.25.53,2.35,2.35,0,0,1,.44,1.53Z"/><path class="cls-6" d="M177.29,21a1.61,1.61,0,0,1-.75.15c-.88,0-1.32-.49-1.32-1.46v-3h-.85V16h.85V14.77l.81-.25V16h1.26v.68H176V19.5a1.11,1.11,0,0,0,.17.71.65.65,0,0,0,.56.22.88.88,0,0,0,.53-.17Z"/><path class="cls-6" d="M178.76,14.73a.49.49,0,0,1-.36-.15.5.5,0,0,1-.15-.37.5.5,0,0,1,.51-.52.56.56,0,0,1,.38.14.52.52,0,0,1,.15.38.53.53,0,0,1-.53.52Zm.4,6.27h-.81V16h.81Z"/><path class="cls-6" d="M183.25,14.3a1.09,1.09,0,0,0-.54-.14c-.55,0-.83.36-.83,1.06V16h1.17v.68h-1.17V21h-.8V16.68h-.86V16h.86v-.82a1.7,1.7,0,0,1,.45-1.24,1.56,1.56,0,0,1,1.14-.45,1.59,1.59,0,0,1,.58.08Z"/><path class="cls-6" d="M184.32,14.73a.51.51,0,0,1-.52-.52.52.52,0,0,1,.15-.38.53.53,0,0,1,.37-.14.55.55,0,0,1,.37.14.52.52,0,0,1,.15.38.49.49,0,0,1-.15.36A.49.49,0,0,1,184.32,14.73Zm.39,6.27h-.8V16h.8Z"/><path class="cls-6" d="M189.81,16.22l-2.95,4.09h2.93V21h-4.11v-.25l3-4.07H186V16h3.85Z"/><path class="cls-6" d="M191.26,14.73a.51.51,0,0,1-.37-.15.5.5,0,0,1-.15-.37.52.52,0,0,1,.15-.38.55.55,0,0,1,.37-.14.53.53,0,0,1,.37.14.49.49,0,0,1,.16.38.46.46,0,0,1-.16.36A.47.47,0,0,1,191.26,14.73Zm.39,6.27h-.8V16h.8Z"/><path class="cls-6" d="M197.29,18.7h-3.53a1.82,1.82,0,0,0,.45,1.28,1.53,1.53,0,0,0,1.18.46,2.46,2.46,0,0,0,1.55-.56v.75a2.89,2.89,0,0,1-1.74.48,2.07,2.07,0,0,1-1.66-.68,2.75,2.75,0,0,1-.61-1.92,2.75,2.75,0,0,1,.66-1.9,2.12,2.12,0,0,1,1.64-.73,1.88,1.88,0,0,1,1.52.63,2.66,2.66,0,0,1,.54,1.77Zm-.82-.68a1.6,1.6,0,0,0-.33-1.08,1.14,1.14,0,0,0-.92-.39,1.28,1.28,0,0,0-1,.41,1.78,1.78,0,0,0-.49,1.06Z"/><path class="cls-6" d="M201.11,16.81a1,1,0,0,0-.61-.17,1,1,0,0,0-.85.49,2.22,2.22,0,0,0-.35,1.32V21h-.8V16h.8v1h0a1.82,1.82,0,0,1,.52-.83,1.24,1.24,0,0,1,.79-.29,1.22,1.22,0,0,1,.48.07Z"/><path class="cls-6" d="M206,21h-.8v-.8h0a1.64,1.64,0,0,1-1.54.91c-1.19,0-1.79-.71-1.79-2.13V16h.8v2.86c0,1.05.4,1.58,1.21,1.58a1.24,1.24,0,0,0,1-.43,1.68,1.68,0,0,0,.38-1.13V16h.8Z"/><path class="cls-6" d="M211.79,21H211V18.14q0-1.59-1.17-1.59a1.25,1.25,0,0,0-1,.45,1.68,1.68,0,0,0-.39,1.14V21h-.8V16h.8v.83h0a1.78,1.78,0,0,1,1.64-.95,1.51,1.51,0,0,1,1.25.53,2.35,2.35,0,0,1,.44,1.53Z"/><path class="cls-6" d="M217.56,20.59c0,1.84-.88,2.76-2.63,2.76a3.58,3.58,0,0,1-1.62-.35v-.8a3.35,3.35,0,0,0,1.61.47c1.23,0,1.84-.66,1.84-2v-.54h0a2,2,0,0,1-3.22.29,2.69,2.69,0,0,1-.57-1.79,3.11,3.11,0,0,1,.62-2,2,2,0,0,1,1.67-.75,1.62,1.62,0,0,1,1.5.81h0V16h.8Zm-.8-1.86V18a1.41,1.41,0,0,0-.4-1,1.3,1.3,0,0,0-1-.43,1.4,1.4,0,0,0-1.17.54,2.4,2.4,0,0,0-.42,1.51,2.08,2.08,0,0,0,.41,1.34,1.3,1.3,0,0,0,1.06.5,1.4,1.4,0,0,0,1.1-.48A1.8,1.8,0,0,0,216.76,18.73Z"/><path class="cls-6" d="M45.94,30.52h-5v-.63h5Z"/><path class="cls-6" d="M49.6,33V26h2a2.14,2.14,0,0,1,1.44.45,1.4,1.4,0,0,1,.53,1.15,1.67,1.67,0,0,1-.32,1,1.77,1.77,0,0,1-.89.63h0a1.83,1.83,0,0,1,1.14.54A1.65,1.65,0,0,1,53.91,31a1.83,1.83,0,0,1-.64,1.46,2.43,2.43,0,0,1-1.63.56Zm.82-6.26V29h.84a1.58,1.58,0,0,0,1.06-.33,1.1,1.1,0,0,0,.38-.91c0-.68-.44-1-1.34-1Zm0,3v2.52h1.11a1.65,1.65,0,0,0,1.12-.34,1.16,1.16,0,0,0,.4-.94c0-.82-.56-1.24-1.69-1.24Z"/><path class="cls-6" d="M59.24,30.7H55.71A1.92,1.92,0,0,0,56.16,32a1.53,1.53,0,0,0,1.18.46,2.49,2.49,0,0,0,1.56-.56v.75a2.9,2.9,0,0,1-1.75.48,2.09,2.09,0,0,1-1.66-.68,3.19,3.19,0,0,1,0-3.82,2.14,2.14,0,0,1,1.65-.73,1.9,1.9,0,0,1,1.52.63,2.71,2.71,0,0,1,.53,1.77ZM58.42,30a1.6,1.6,0,0,0-.33-1.08,1.14,1.14,0,0,0-.92-.39,1.28,1.28,0,0,0-1,.41A1.84,1.84,0,0,0,55.72,30Z"/><path class="cls-6" d="M64.6,33h-.8V30.14c0-1.06-.38-1.59-1.16-1.59a1.25,1.25,0,0,0-1,.45,1.68,1.68,0,0,0-.4,1.14V33h-.8V28h.8v.83h0a1.8,1.8,0,0,1,1.65-.95,1.51,1.51,0,0,1,1.25.53,2.34,2.34,0,0,1,.43,1.53Z"/><path class="cls-6" d="M70.16,33h-.8v-.8h0a1.65,1.65,0,0,1-1.55.91C66.6,33.11,66,32.4,66,31V28h.79v2.86c0,1.05.41,1.58,1.21,1.58A1.27,1.27,0,0,0,69,32a1.68,1.68,0,0,0,.38-1.13V28h.8Z"/><path class="cls-6" d="M74.09,33a1.61,1.61,0,0,1-.75.15c-.87,0-1.31-.49-1.31-1.46v-3h-.86V28H72V26.77l.8-.25V28h1.26v.68H72.83V31.5a1.17,1.17,0,0,0,.17.71.68.68,0,0,0,.57.22.83.83,0,0,0,.52-.17Z"/><path class="cls-6" d="M78.65,28.22l-3,4.09h2.93V33H74.51v-.25l3-4.07H74.79V28h3.86Z"/><path class="cls-6" d="M83.7,30.7H80.17A1.82,1.82,0,0,0,80.62,32a1.53,1.53,0,0,0,1.18.46,2.44,2.44,0,0,0,1.55-.56v.75a2.87,2.87,0,0,1-1.74.48A2.09,2.09,0,0,1,80,32.43a3.19,3.19,0,0,1,0-3.82,2.12,2.12,0,0,1,1.65-.73,1.86,1.86,0,0,1,1.51.63,2.66,2.66,0,0,1,.54,1.77ZM82.88,30a1.6,1.6,0,0,0-.33-1.08,1.14,1.14,0,0,0-.92-.39,1.28,1.28,0,0,0-1,.41A1.84,1.84,0,0,0,80.18,30Z"/><path class="cls-6" d="M87.52,28.81a1,1,0,0,0-.61-.17,1,1,0,0,0-.85.49,2.22,2.22,0,0,0-.35,1.32V33h-.8V28h.8v1h0a1.82,1.82,0,0,1,.52-.83,1.24,1.24,0,0,1,.79-.29,1.22,1.22,0,0,1,.48.07Z"/><path class="cls-6" d="M92.54,33h-.8V30.14c0-1.06-.39-1.59-1.16-1.59a1.27,1.27,0,0,0-1,.45,1.68,1.68,0,0,0-.39,1.14V33h-.8V28h.8v.83h0a1.79,1.79,0,0,1,1.64-.95,1.5,1.5,0,0,1,1.25.53,2.35,2.35,0,0,1,.44,1.53Z"/><path class="cls-6" d="M97.63,33h-.8v-.79h0a1.68,1.68,0,0,1-1.54.9,1.65,1.65,0,0,1-1.17-.39,1.39,1.39,0,0,1-.42-1c0-.94.55-1.48,1.65-1.63l1.5-.21c0-.85-.35-1.28-1-1.28a2.44,2.44,0,0,0-1.63.62v-.82a3,3,0,0,1,1.69-.47q1.77,0,1.77,1.86Zm-.8-2.53-1.21.16a2,2,0,0,0-.84.28.78.78,0,0,0-.28.7.76.76,0,0,0,.26.6,1,1,0,0,0,.69.23,1.29,1.29,0,0,0,1-.42A1.49,1.49,0,0,0,96.83,31Z"/><path class="cls-6" d="M106.24,33h-.81V30.12a2.19,2.19,0,0,0-.25-1.2,1,1,0,0,0-.86-.37,1,1,0,0,0-.87.47,1.79,1.79,0,0,0-.36,1.12V33h-.8V30c0-1-.38-1.48-1.14-1.48a1.07,1.07,0,0,0-.87.44,1.83,1.83,0,0,0-.34,1.15V33h-.8V28h.8v.79h0a1.68,1.68,0,0,1,1.55-.91,1.43,1.43,0,0,1,.89.28,1.37,1.37,0,0,1,.52.75,1.79,1.79,0,0,1,1.66-1c1.11,0,1.66.68,1.66,2Z"/><path class="cls-6" d="M111.77,30.7h-3.53a1.82,1.82,0,0,0,.45,1.28,1.52,1.52,0,0,0,1.18.46,2.46,2.46,0,0,0,1.55-.56v.75a2.89,2.89,0,0,1-1.74.48,2.11,2.11,0,0,1-1.67-.68,2.8,2.8,0,0,1-.6-1.92,2.75,2.75,0,0,1,.66-1.9,2.12,2.12,0,0,1,1.64-.73,1.88,1.88,0,0,1,1.52.63,2.66,2.66,0,0,1,.54,1.77ZM111,30a1.66,1.66,0,0,0-.34-1.08,1.12,1.12,0,0,0-.91-.39,1.28,1.28,0,0,0-1,.41,1.78,1.78,0,0,0-.49,1.06Z"/><path class="cls-6" d="M116.14,26l-3.36,8.17H112L115.38,26Z"/><path class="cls-6" d="M121.86,33h-1.15L118,29.79a2.21,2.21,0,0,1-.19-.24h0V33H117V26h.82v3.29h0a1.77,1.77,0,0,1,.19-.23L120.63,26h1l-3,3.36Z"/><path class="cls-6" d="M126.56,30.7H123a1.87,1.87,0,0,0,.45,1.28,1.53,1.53,0,0,0,1.18.46,2.49,2.49,0,0,0,1.56-.56v.75a2.9,2.9,0,0,1-1.75.48,2.09,2.09,0,0,1-1.66-.68,3.19,3.19,0,0,1,0-3.82,2.12,2.12,0,0,1,1.65-.73,1.9,1.9,0,0,1,1.52.63,2.71,2.71,0,0,1,.53,1.77Zm-.82-.68a1.6,1.6,0,0,0-.33-1.08,1.14,1.14,0,0,0-.92-.39,1.28,1.28,0,0,0-1,.41A1.84,1.84,0,0,0,123,30Z"/><path class="cls-6" d="M131.92,33h-.8V30.14c0-1.06-.38-1.59-1.16-1.59a1.25,1.25,0,0,0-1,.45,1.68,1.68,0,0,0-.4,1.14V33h-.8V28h.8v.83h0a1.8,1.8,0,0,1,1.64-.95,1.52,1.52,0,0,1,1.26.53,2.34,2.34,0,0,1,.43,1.53Z"/><path class="cls-6" d="M137.58,33h-.8V30.14c0-1.06-.39-1.59-1.16-1.59a1.25,1.25,0,0,0-1,.45,1.64,1.64,0,0,0-.4,1.14V33h-.8V28h.8v.83h0a1.8,1.8,0,0,1,1.64-.95,1.52,1.52,0,0,1,1.26.53,2.34,2.34,0,0,1,.43,1.53Z"/><path class="cls-6" d="M145.39,28l-1.5,5h-.83l-1-3.58A3.06,3.06,0,0,1,142,29h0a2.15,2.15,0,0,1-.1.46L140.71,33h-.8l-1.51-5h.84l1,3.76a1.62,1.62,0,0,1,.07.44h0a2,2,0,0,1,.09-.45L141.62,28h.73l1,3.76a2.51,2.51,0,0,1,.07.45h0a3.62,3.62,0,0,1,.08-.45l1-3.76Z"/><path class="cls-6" d="M148.41,33.11a2.31,2.31,0,0,1-1.77-.7,2.6,2.6,0,0,1-.66-1.86,2.68,2.68,0,0,1,.69-2,2.42,2.42,0,0,1,1.86-.71,2.24,2.24,0,0,1,1.74.69,2.72,2.72,0,0,1,.63,1.91,2.69,2.69,0,0,1-.68,1.91A2.36,2.36,0,0,1,148.41,33.11Zm.06-4.56a1.52,1.52,0,0,0-1.22.53,2.14,2.14,0,0,0-.45,1.44,2.08,2.08,0,0,0,.45,1.41,1.55,1.55,0,0,0,1.22.51,1.48,1.48,0,0,0,1.19-.5,2.2,2.2,0,0,0,.42-1.43,2.22,2.22,0,0,0-.42-1.45A1.46,1.46,0,0,0,148.47,28.55Z"/><path class="cls-6" d="M154.79,28.81a1,1,0,0,0-.61-.17,1,1,0,0,0-.86.49,2.23,2.23,0,0,0-.34,1.32V33h-.8V28h.8v1h0a1.74,1.74,0,0,1,.52-.83,1.22,1.22,0,0,1,.79-.29,1.28,1.28,0,0,1,.48.07Z"/><path class="cls-6" d="M158,33a1.54,1.54,0,0,1-.74.15c-.88,0-1.32-.49-1.32-1.46v-3h-.86V28h.86V26.77l.8-.25V28H158v.68h-1.26V31.5a1.17,1.17,0,0,0,.17.71.68.68,0,0,0,.57.22.83.83,0,0,0,.52-.17Z"/><rect class="cls-5" x="75.52" y="53.58" width="87.18" height="1.75"/></g></svg>