<svg xmlns="http://www.w3.org/2000/svg" viewBox="0 0 204.71 66.15"><defs><style>.cls-1{fill:#007efd;}.cls-2,.cls-3{fill:#008bfd;}.cls-3{stroke:gray;stroke-linecap:round;stroke-linejoin:round;stroke-width:0.75px;}.cls-4{fill:#fff;}.cls-5{fill:#505050;}.cls-6{fill:#00b0f0;}</style></defs><title>OJ104546516</title><g id="shapes"><g id="group1195-2"><g id="shape1200-7"><path class="cls-1" d="M69.66,9.34H63.58c-.23,0-.38.15-.38.46V12a.35.35,0,0,0,.38.37H67v3.39c0,.23.15.38.45.38h2.18a.35.35,0,0,0,.37-.38v-6A.35.35,0,0,0,69.66,9.34Zm-17.19,21H49V27c0-.22-.15-.37-.45-.37H46.4A.35.35,0,0,0,46,27v6a.36.36,0,0,0,.38.38h6.07c.23,0,.38-.15.38-.45V30.72A.36.36,0,0,0,52.47,30.34Zm13.58-3.69a.9.9,0,0,0-.45.08l-2.32-4.07a2.77,2.77,0,0,0-1.88-4.81,3,3,0,0,0-1.12.22L57.8,14.61a2,2,0,0,0,.53-1.5A2.33,2.33,0,1,0,56,15.44a2.38,2.38,0,0,0,.75-.15l2.48,3.54a2.82,2.82,0,0,0-.68,1.43l-7.2.6a1.78,1.78,0,0,0-1.65-1,1.88,1.88,0,0,0,0,3.76,1.92,1.92,0,0,0,1.87-1.58l7.06-.6a3.74,3.74,0,0,0,.67,1.2L57.5,25.6h-.22a1.88,1.88,0,1,0,1.87,1.88,2.13,2.13,0,0,0-.52-1.35l1.72-2.86a4,4,0,0,0,1,.15,3.38,3.38,0,0,0,.82-.15l2.33,4.06a2.34,2.34,0,0,0-.68,1.58,2.18,2.18,0,1,0,2.25-2.26Z"/></g></g><g id="group1201-12"><g id="group1202-13"><g id="group1203-14"><g id="group1204-15"><g id="shape1205-16"><path class="cls-2" d="M7.85,13.61a4.49,4.49,0,0,0-3,5.66c.66,2.56,3,4.22,5.27,3.67a4.5,4.5,0,0,0,3-5.67C12.57,14.61,10.16,12.94,7.85,13.61Z"/></g></g><g id="group1206-18"><g id="shape1207-19"><path class="cls-2" d="M12.79,23.63c-.44,0-.88.78-1.54,1.11s-1.32.89-3.18,0S6,23.08,4.44,23.08.38,25.85.38,30H16a12.14,12.14,0,0,0-1.1-4.22C13.77,23.63,13.23,23.63,12.79,23.63Z"/></g></g></g></g><g id="group1208-21"><g id="shape1209-22"><path class="cls-3" d="M14.19,18.69H10.07a.71.71,0,0,0-.65.66V22.2a.73.73,0,0,0,.76.66h.76V28a1,1,0,0,0,1,1.1,1,1,0,0,0,1-1h.21v-.65c0-.22.33-.33.33-.33V26.8c-.33-.11-.54-.33-.54-.44V26l.21-.22a3.55,3.55,0,0,0,.33-.54,2.4,2.4,0,0,1-.33-.55c-.1-.11-.1-.33-.21-.44v-.22a2.51,2.51,0,0,1,.76-1.1h.54a.7.7,0,0,0,.65-.65v-3A.63.63,0,0,0,14.19,18.69ZM11.8,28.22c0,.22,0,.33-.21.33s-.22-.22-.22-.33V23.4c0-.22.11-.33.22-.33s.21.22.21.33Zm.33-7.78a.69.69,0,0,1-.65-.65.7.7,0,0,1,.65-.66.71.71,0,0,1,.65.66A.62.62,0,0,1,12.13,20.44Z"/></g><g id="shape1210-24"><path class="cls-4" d="M11.57,28.53a.24.24,0,0,1-.22-.22v-5a.22.22,0,1,1,.44,0v5.11C11.79,28.53,11.68,28.53,11.57,28.53Z"/></g><g id="shape1211-26"><ellipse class="cls-4" cx="12.14" cy="19.77" rx="0.66" ry="0.67"/></g></g></g><path class="cls-2" d="M191.76,8.21h-20.5a1.09,1.09,0,0,0-1.09,1.1V26.05a1.1,1.1,0,0,0,1.09,1.11h5.28a3.29,3.29,0,0,0,3.21,2.27,3.38,3.38,0,0,0,0-6.75A3.29,3.29,0,0,0,176.54,25h-4.19V13h18.31V25h-3.45a7.61,7.61,0,0,0-7.46-6.56,8.25,8.25,0,0,0-3.64.92l1,2a5.27,5.27,0,0,1,2.55-.67,5.46,5.46,0,0,1,0,10.91,5.27,5.27,0,0,1-2.55-.67l-1,2a7.51,7.51,0,0,0,3.64.92,7.61,7.61,0,0,0,7.46-6.56h4.55a1.1,1.1,0,0,0,1.09-1.11V9.31A1.14,1.14,0,0,0,191.76,8.21Z"/><g id="shape1213-31"><g id="lend5"><path class="cls-5" d="M161.69,17l8.05,4-8,4a9,9,0,0,0,0-8"/></g></g></g><g id="text"><path class="cls-6" d="M88.3,13a4.79,4.79,0,0,1-2.35.59,3.21,3.21,0,0,1-2.42-1,3.55,3.55,0,0,1-.93-2.56,3.65,3.65,0,0,1,1-2.67,3.5,3.5,0,0,1,2.61-1,4.41,4.41,0,0,1,1.92.37v.91a3.69,3.69,0,0,0-2-.54,2.5,2.5,0,0,0-1.92.81,2.93,2.93,0,0,0-.76,2.1,3,3,0,0,0,.7,2.09,2.48,2.48,0,0,0,1.9.76,2.92,2.92,0,0,0,1.42-.33v-2H85.94V9.81H88.3Z"/><path class="cls-6" d="M93.83,11.17H90.3a2,2,0,0,0,.45,1.29,1.57,1.57,0,0,0,1.19.45,2.46,2.46,0,0,0,1.55-.56v.75a2.89,2.89,0,0,1-1.74.48,2.09,2.09,0,0,1-1.67-.68A2.79,2.79,0,0,1,89.47,11a2.76,2.76,0,0,1,.67-1.91,2.12,2.12,0,0,1,1.64-.73A1.9,1.9,0,0,1,93.3,9a2.65,2.65,0,0,1,.53,1.77ZM93,10.49a1.62,1.62,0,0,0-.33-1.08A1.13,1.13,0,0,0,91.76,9a1.32,1.32,0,0,0-1,.41,1.91,1.91,0,0,0-.49,1.06Z"/><path class="cls-6" d="M97.65,9.28a1,1,0,0,0-.6-.16,1,1,0,0,0-.86.48,2.23,2.23,0,0,0-.34,1.32v2.55h-.8v-5h.8v1h0a1.67,1.67,0,0,1,.52-.83,1.33,1.33,0,0,1,1.26-.22Z"/><path class="cls-6" d="M102.1,13.47h-.8v-.79h0a1.83,1.83,0,0,1-2.71.51,1.39,1.39,0,0,1-.42-1c0-.94.55-1.48,1.65-1.63l1.5-.21c0-.85-.34-1.28-1-1.28a2.46,2.46,0,0,0-1.63.62V8.82a3.12,3.12,0,0,1,1.7-.47c1.17,0,1.76.62,1.76,1.86Zm-2.81-6a.49.49,0,0,1-.35-.15A.45.45,0,0,1,98.8,7a.48.48,0,0,1,.14-.35.47.47,0,0,1,.34-.13.47.47,0,0,1,.35.14.46.46,0,0,1,.14.34.45.45,0,0,1-.14.34A.48.48,0,0,1,99.29,7.52Zm2,3.42-1.21.16a2,2,0,0,0-.84.28.81.81,0,0,0-.28.7.79.79,0,0,0,.26.6,1.05,1.05,0,0,0,.7.23,1.27,1.27,0,0,0,1-.42,1.49,1.49,0,0,0,.39-1.06Zm-.13-3.42a.49.49,0,0,1-.34-.14.46.46,0,0,1-.14-.34.48.48,0,0,1,.14-.35.44.44,0,0,1,.33-.13.48.48,0,0,1,.49.48.49.49,0,0,1-.14.34A.46.46,0,0,1,101.17,7.52Z"/><path class="cls-6" d="M105.93,13.42a1.61,1.61,0,0,1-.75.15c-.87,0-1.31-.48-1.31-1.46v-3H103V8.47h.86V7.25l.8-.26V8.47h1.26v.68h-1.26V12a1.17,1.17,0,0,0,.17.71.66.66,0,0,0,.57.22.85.85,0,0,0,.52-.17Z"/><path class="cls-6" d="M111,11.17h-3.53a1.87,1.87,0,0,0,.45,1.29,1.54,1.54,0,0,0,1.18.45,2.46,2.46,0,0,0,1.55-.56v.75a2.89,2.89,0,0,1-1.74.48,2.11,2.11,0,0,1-1.67-.68,2.79,2.79,0,0,1-.6-1.91,2.76,2.76,0,0,1,.66-1.91A2.12,2.12,0,0,1,109,8.35a1.88,1.88,0,0,1,1.52.63,2.66,2.66,0,0,1,.54,1.77Zm-.82-.68a1.68,1.68,0,0,0-.34-1.08A1.12,1.12,0,0,0,109,9a1.28,1.28,0,0,0-1,.41,1.78,1.78,0,0,0-.49,1.06Z"/><path class="cls-6" d="M115.64,13.24a2.63,2.63,0,0,1-1.37.34,2.29,2.29,0,0,1-1.73-.69,2.57,2.57,0,0,1-.65-1.81,2.77,2.77,0,0,1,.7-2,2.5,2.5,0,0,1,1.89-.75,2.72,2.72,0,0,1,1.17.24v.82A2,2,0,0,0,114.46,9a1.61,1.61,0,0,0-1.26.55,2.08,2.08,0,0,0-.49,1.44,2,2,0,0,0,.46,1.39,1.59,1.59,0,0,0,1.24.51,2,2,0,0,0,1.23-.44Z"/><path class="cls-6" d="M118.94,13.58a2.31,2.31,0,0,1-1.77-.7,2.58,2.58,0,0,1-.66-1.86,2.72,2.72,0,0,1,.68-2,2.45,2.45,0,0,1,1.86-.71A2.25,2.25,0,0,1,120.8,9a2.72,2.72,0,0,1,.63,1.91,2.69,2.69,0,0,1-.68,1.91A2.36,2.36,0,0,1,118.94,13.58ZM119,9a1.5,1.5,0,0,0-1.22.53,2.15,2.15,0,0,0-.45,1.45,2.07,2.07,0,0,0,.45,1.4,1.55,1.55,0,0,0,1.22.51,1.48,1.48,0,0,0,1.19-.5,2.2,2.2,0,0,0,.42-1.43,2.22,2.22,0,0,0-.42-1.45A1.46,1.46,0,0,0,119,9Z"/><path class="cls-6" d="M127,13.47h-.8v-.85h0a2,2,0,0,1-3.22.29,2.74,2.74,0,0,1-.56-1.83,3,3,0,0,1,.62-2,2.06,2.06,0,0,1,1.67-.75,1.59,1.59,0,0,1,1.49.81h0V6.06h.8Zm-.8-2.26v-.74a1.42,1.42,0,0,0-.4-1,1.32,1.32,0,0,0-1-.42,1.36,1.36,0,0,0-1.15.54,2.35,2.35,0,0,0-.42,1.48,2.11,2.11,0,0,0,.4,1.37,1.33,1.33,0,0,0,1.08.5,1.38,1.38,0,0,0,1.09-.48A1.85,1.85,0,0,0,126.17,11.21Z"/><path class="cls-6" d="M132.61,11.17h-3.53a2,2,0,0,0,.45,1.29,1.56,1.56,0,0,0,1.18.45,2.47,2.47,0,0,0,1.56-.56v.75a2.9,2.9,0,0,1-1.75.48,2.09,2.09,0,0,1-1.66-.68,2.79,2.79,0,0,1-.61-1.91,2.72,2.72,0,0,1,.67-1.91,2.1,2.1,0,0,1,1.64-.73,1.9,1.9,0,0,1,1.52.63,2.65,2.65,0,0,1,.53,1.77Zm-.82-.68a1.62,1.62,0,0,0-.33-1.08,1.14,1.14,0,0,0-.92-.39,1.32,1.32,0,0,0-1,.41,1.91,1.91,0,0,0-.49,1.06Z"/><path class="cls-6" d="M136.3,6.77a1.09,1.09,0,0,0-.54-.14c-.56,0-.84.36-.84,1.06v.78h1.18v.68h-1.18v4.32h-.79V9.15h-.86V8.47h.86V7.66a1.71,1.71,0,0,1,.45-1.25A1.54,1.54,0,0,1,135.71,6a1.86,1.86,0,0,1,.59.08Z"/><path class="cls-6" d="M137.76,13.47H137V6.06h.8Z"/><path class="cls-6" d="M141.47,13.58a2.31,2.31,0,0,1-1.77-.7A2.58,2.58,0,0,1,139,11a2.67,2.67,0,0,1,.68-2,2.45,2.45,0,0,1,1.86-.71,2.25,2.25,0,0,1,1.75.69A2.72,2.72,0,0,1,144,11a2.69,2.69,0,0,1-.68,1.91A2.36,2.36,0,0,1,141.47,13.58ZM141.53,9a1.54,1.54,0,0,0-1.23.53,2.15,2.15,0,0,0-.44,1.45,2.07,2.07,0,0,0,.45,1.4,1.55,1.55,0,0,0,1.22.51,1.48,1.48,0,0,0,1.19-.5,2.2,2.2,0,0,0,.42-1.43,2.22,2.22,0,0,0-.42-1.45A1.46,1.46,0,0,0,141.53,9Z"/><path class="cls-6" d="M151.54,8.47l-1.5,5h-.83l-1-3.58a2.09,2.09,0,0,1-.08-.47h0a3,3,0,0,1-.1.46l-1.12,3.59h-.8l-1.52-5h.84l1,3.76a3.07,3.07,0,0,1,.07.45h0a1.93,1.93,0,0,1,.08-.46l1.16-3.75h.73l1,3.77a2.32,2.32,0,0,1,.08.44h0a1.65,1.65,0,0,1,.08-.44l1-3.77Z"/><path d="M42.65,47.15h-.91l-.74-2H38l-.7,2h-.91l2.68-7H40Zm-1.92-2.7-1.1-3a3,3,0,0,1-.11-.47h0a2.74,2.74,0,0,1-.11.47l-1.09,3Z"/><path d="M44.39,46.43h0v3h-.8v-7.3h.8V43h0a1.9,1.9,0,0,1,1.73-1,1.84,1.84,0,0,1,1.51.68,2.76,2.76,0,0,1,.54,1.8,3.12,3.12,0,0,1-.61,2,2,2,0,0,1-1.67.76A1.67,1.67,0,0,1,44.39,46.43Zm0-2v.7a1.48,1.48,0,0,0,.4,1A1.45,1.45,0,0,0,46.94,46a2.6,2.6,0,0,0,.41-1.55A2,2,0,0,0,47,43.18a1.27,1.27,0,0,0-1-.47,1.44,1.44,0,0,0-1.13.48A1.81,1.81,0,0,0,44.37,44.41Z"/><path d="M50.27,46.43h0v3h-.8v-7.3h.8V43h0A1.9,1.9,0,0,1,52,42a1.85,1.85,0,0,1,1.51.68,2.76,2.76,0,0,1,.54,1.8,3.12,3.12,0,0,1-.61,2,2,2,0,0,1-1.67.76A1.67,1.67,0,0,1,50.27,46.43Zm0-2v.7a1.48,1.48,0,0,0,.4,1A1.44,1.44,0,0,0,52.81,46a2.53,2.53,0,0,0,.42-1.55,2,2,0,0,0-.39-1.31,1.28,1.28,0,0,0-1-.47,1.44,1.44,0,0,0-1.13.48A1.81,1.81,0,0,0,50.25,44.41Z"/><path d="M60.16,47.27a2.31,2.31,0,0,1-1.77-.7,2.57,2.57,0,0,1-.67-1.86,2.7,2.7,0,0,1,.69-2A2.49,2.49,0,0,1,60.27,42a2.25,2.25,0,0,1,1.75.69,2.73,2.73,0,0,1,.63,1.91A2.7,2.7,0,0,1,62,46.55,2.37,2.37,0,0,1,60.16,47.27Zm.05-4.56a1.52,1.52,0,0,0-1.22.52,2.17,2.17,0,0,0-.45,1.45,2.05,2.05,0,0,0,.46,1.4,1.54,1.54,0,0,0,1.21.51,1.46,1.46,0,0,0,1.2-.5,2.16,2.16,0,0,0,.42-1.43,2.19,2.19,0,0,0-.42-1.44A1.47,1.47,0,0,0,60.21,42.71Z"/><path d="M68.08,47.15h-.81V44.27c0-1-.38-1.56-1.16-1.56a1.25,1.25,0,0,0-1,.45,1.67,1.67,0,0,0-.4,1.16v2.83h-.8v-7.4h.8V43h0A1.82,1.82,0,0,1,66.39,42c1.12,0,1.69.68,1.69,2Z"/><path d="M73.73,47.15h-.8V44.3c0-1.06-.38-1.59-1.16-1.59a1.25,1.25,0,0,0-1,.45,1.68,1.68,0,0,0-.39,1.14v2.85h-.81v-5h.81V43h0A1.82,1.82,0,0,1,72.05,42a1.54,1.54,0,0,1,1.25.53,2.38,2.38,0,0,1,.43,1.53Z"/><path d="M79.26,44.85H75.73a1.88,1.88,0,0,0,.45,1.29,1.56,1.56,0,0,0,1.18.45A2.48,2.48,0,0,0,78.92,46v.75a2.9,2.9,0,0,1-1.75.48,2.12,2.12,0,0,1-1.66-.68,2.78,2.78,0,0,1-.61-1.92,2.73,2.73,0,0,1,.66-1.9A2.13,2.13,0,0,1,77.21,42a1.9,1.9,0,0,1,1.52.64,2.68,2.68,0,0,1,.53,1.76Zm-.82-.68a1.62,1.62,0,0,0-.33-1.08,1.17,1.17,0,0,0-.92-.38,1.28,1.28,0,0,0-1,.4,1.87,1.87,0,0,0-.49,1.06Z"/><path d="M41.28,59.15v-7h2a2.19,2.19,0,0,1,1.44.44,1.45,1.45,0,0,1,.54,1.16A1.7,1.7,0,0,1,44,55.41v0a1.78,1.78,0,0,1,1.13.54,1.65,1.65,0,0,1,.42,1.17A1.81,1.81,0,0,1,45,58.59a2.36,2.36,0,0,1-1.63.56Zm.82-6.26v2.26h.84A1.63,1.63,0,0,0,44,54.83a1.13,1.13,0,0,0,.39-.92q0-1-1.35-1Zm0,3v2.52h1.11a1.68,1.68,0,0,0,1.13-.34,1.19,1.19,0,0,0,.39-.94c0-.83-.56-1.24-1.69-1.24Z"/><path d="M49.51,55a1,1,0,0,0-.6-.16,1,1,0,0,0-.86.48,2.27,2.27,0,0,0-.34,1.32v2.55h-.8v-5h.8v1h0a1.69,1.69,0,0,1,.52-.82,1.18,1.18,0,0,1,.79-.3,1.41,1.41,0,0,1,.47.07Z"/><path d="M52.47,59.27a2.31,2.31,0,0,1-1.77-.7A2.61,2.61,0,0,1,50,56.71a2.7,2.7,0,0,1,.69-2A2.49,2.49,0,0,1,52.59,54a2.25,2.25,0,0,1,1.75.69A2.78,2.78,0,0,1,55,56.63a2.69,2.69,0,0,1-.67,1.92A2.38,2.38,0,0,1,52.47,59.27Zm.06-4.56a1.52,1.52,0,0,0-1.22.52,2.17,2.17,0,0,0-.45,1.45,2,2,0,0,0,.46,1.4,1.53,1.53,0,0,0,1.21.51,1.46,1.46,0,0,0,1.2-.5,2.21,2.21,0,0,0,.41-1.43,2.25,2.25,0,0,0-.41-1.44A1.47,1.47,0,0,0,52.53,54.71Z"/><path d="M62.54,54.15l-1.5,5h-.83l-1-3.58a2.73,2.73,0,0,1-.08-.46h0a2,2,0,0,1-.1.45l-1.12,3.59h-.8l-1.51-5h.84l1,3.76a1.7,1.7,0,0,1,.07.45h0a2.07,2.07,0,0,1,.09-.46l1.15-3.75h.73l1,3.77a2.37,2.37,0,0,1,.07.45h0a3.08,3.08,0,0,1,.08-.45l1-3.77Z"/><path d="M63.17,59v-.86a2.35,2.35,0,0,0,1.44.48c.7,0,1-.23,1-.7a.62.62,0,0,0-.09-.34.91.91,0,0,0-.24-.24,2.08,2.08,0,0,0-.36-.2l-.45-.18a4,4,0,0,1-.58-.26,1.74,1.74,0,0,1-.42-.3,1.11,1.11,0,0,1-.26-.39,1.28,1.28,0,0,1-.08-.5,1.17,1.17,0,0,1,.16-.62,1.35,1.35,0,0,1,.43-.46,2,2,0,0,1,.61-.27,2.44,2.44,0,0,1,.71-.1,2.86,2.86,0,0,1,1.16.23v.81A2.27,2.27,0,0,0,65,54.71a1.25,1.25,0,0,0-.4,0,.89.89,0,0,0-.31.14.62.62,0,0,0-.2.23.53.53,0,0,0-.07.28.67.67,0,0,0,.07.33.62.62,0,0,0,.2.23,2.17,2.17,0,0,0,.34.19l.44.18a5.68,5.68,0,0,1,.6.26,2.52,2.52,0,0,1,.45.3,1.18,1.18,0,0,1,.38.91,1.23,1.23,0,0,1-.16.65,1.45,1.45,0,0,1-.44.45,2,2,0,0,1-.63.27,3.08,3.08,0,0,1-.75.09A2.78,2.78,0,0,1,63.17,59Z"/><path d="M71.73,56.85H68.2a1.83,1.83,0,0,0,.45,1.29,1.56,1.56,0,0,0,1.18.45A2.45,2.45,0,0,0,71.38,58v.75a2.89,2.89,0,0,1-1.74.48A2.1,2.1,0,0,1,68,58.59a2.78,2.78,0,0,1-.61-1.92,2.73,2.73,0,0,1,.66-1.9A2.12,2.12,0,0,1,69.67,54a1.88,1.88,0,0,1,1.52.64,2.63,2.63,0,0,1,.54,1.76Zm-.82-.68a1.62,1.62,0,0,0-.33-1.08,1.17,1.17,0,0,0-.92-.38,1.28,1.28,0,0,0-1,.4,1.81,1.81,0,0,0-.49,1.06Z"/><path d="M75.55,55a1,1,0,0,0-.61-.16,1,1,0,0,0-.85.48,2.27,2.27,0,0,0-.35,1.32v2.55h-.8v-5h.8v1h0a1.84,1.84,0,0,1,.52-.82,1.2,1.2,0,0,1,.79-.3,1.43,1.43,0,0,1,.48.07Z"/><path d="M169.39,46.72h-.91l-.74-2h-3l-.7,2h-.91l2.68-7h.85ZM167.47,44l-1.1-3a4.26,4.26,0,0,1-.11-.47h0a2.53,2.53,0,0,1-.11.47L165,44Z"/><path d="M171.24,44.07v2.65h-.82v-7h1.92a2.56,2.56,0,0,1,1.74.55,1.93,1.93,0,0,1,.62,1.54,2.13,2.13,0,0,1-.68,1.63,2.61,2.61,0,0,1-1.86.64Zm0-3.61v2.87h.86a1.92,1.92,0,0,0,1.3-.39,1.39,1.39,0,0,0,.44-1.1c0-.92-.55-1.38-1.64-1.38Z"/><path d="M176.84,46.72H176v-7h.82Z"/><path d="M181.13,44.25h-2.66v-.63h2.66Z"/><path d="M188.1,46.72h-.91l-.74-2h-3l-.7,2h-.91l2.68-7h.85ZM186.18,44l-1.1-3a4.26,4.26,0,0,1-.11-.47h0a2.42,2.42,0,0,1-.12.47l-1.09,3Z"/><path d="M189.84,46h0v3H189v-7.3h.8v.87h0a1.9,1.9,0,0,1,1.73-1,1.82,1.82,0,0,1,1.51.67,2.8,2.8,0,0,1,.54,1.8,3.07,3.07,0,0,1-.61,2,2,2,0,0,1-1.67.75A1.67,1.67,0,0,1,189.84,46Zm0-2v.7a1.49,1.49,0,0,0,.41,1,1.33,1.33,0,0,0,1,.43,1.36,1.36,0,0,0,1.14-.56,2.57,2.57,0,0,0,.41-1.55,2,2,0,0,0-.38-1.3,1.28,1.28,0,0,0-1-.48,1.4,1.4,0,0,0-1.12.49A1.75,1.75,0,0,0,189.82,44Z"/><path d="M195.72,46h0v3h-.8v-7.3h.8v.87h0a1.9,1.9,0,0,1,1.73-1,1.83,1.83,0,0,1,1.51.67,2.8,2.8,0,0,1,.54,1.8,3.07,3.07,0,0,1-.61,2,2,2,0,0,1-1.67.75A1.67,1.67,0,0,1,195.72,46Zm0-2v.7a1.49,1.49,0,0,0,.41,1,1.3,1.3,0,0,0,1,.43,1.36,1.36,0,0,0,1.14-.56,2.57,2.57,0,0,0,.41-1.55,2,2,0,0,0-.39-1.3,1.25,1.25,0,0,0-1-.48,1.4,1.4,0,0,0-1.12.49A1.75,1.75,0,0,0,195.7,44Z"/><rect class="cls-5" x="64.49" y="19.99" width="99.53" height="1.75" rx="0.76"/></g></svg>