<svg xmlns="http://www.w3.org/2000/svg" viewBox="0 0 204.71 69.22"><defs><style>.cls-1,.cls-3{fill:#008bfd;}.cls-2{fill:#505050;}.cls-3{stroke:gray;stroke-linecap:round;stroke-linejoin:round;stroke-width:0.75px;}.cls-4{fill:#fff;}.cls-5{fill:#00b0f0;}</style></defs><title>OJ104546510</title><g id="shapes"><g id="group1071-4"><g id="group1072-5"><g id="shape1073-6"><path class="cls-1" d="M66,32.83a11.78,11.78,0,0,1-16.84-2.29,12.56,12.56,0,0,1,2.24-17.29,11.82,11.82,0,0,1,16.84,2.3A12.54,12.54,0,0,1,66,32.83Zm3.66-18.41a13.57,13.57,0,0,0-19.36-2.63,14.43,14.43,0,0,0-2.55,19.87A13.55,13.55,0,0,0,67.13,34.3,14.45,14.45,0,0,0,69.69,14.42Z"/></g></g><g id="group1074-8"><g id="group1075-9"><g id="group1076-10"><g id="shape1077-11"><path class="cls-1" d="M52.06,25.61a17,17,0,0,1-2-2.35,18.28,18.28,0,0,0-1.66,6.88c.11.16.11.29.23.45a13.4,13.4,0,0,0,2,2.05A14.14,14.14,0,0,1,52.06,25.61Z"/></g></g><g id="shape1078-13"><path class="cls-1" d="M56.67,16.17a21,21,0,0,0-3.33,3,15.71,15.71,0,0,0-1.61,2.05,15.93,15.93,0,0,0,1.9,2.47,15.93,15.93,0,0,1,2.2-2.57A26.31,26.31,0,0,1,59,18.5C58.16,17.73,57.38,17,56.67,16.17Z"/></g><g id="group1079-15"><g id="shape1080-16"><path class="cls-1" d="M68.14,15.37a12.47,12.47,0,0,0-1.73-1.82,12.55,12.55,0,0,0-8,1.54c.76.83,1.51,1.62,2.24,2.36C65,15,68.14,15.37,68.14,15.37Z"/></g></g><g id="group1081-18"><g id="shape1082-19"><path class="cls-1" d="M50.54,32.64a19.94,19.94,0,0,1,1.19-2.07,9.83,9.83,0,0,1-1.6-6.79,13.9,13.9,0,0,0-1.29,1.6C48.46,27,48.44,29.55,50.54,32.64Z"/></g></g><g id="group1083-21"><g id="shape1084-22"><path class="cls-1" d="M55.9,25.79a22.67,22.67,0,0,1-2.27-2.13,13.15,13.15,0,0,0-1.14,1.95,25.16,25.16,0,0,0,2.09,1.9A19.15,19.15,0,0,0,67.14,31.9,9.13,9.13,0,0,0,68.68,30C67.45,30.21,62.19,30.9,55.9,25.79Z"/></g></g><g id="group1085-24"><g id="shape1086-25"><path class="cls-1" d="M50.54,23.26a16.8,16.8,0,0,0,2,2.35,14.09,14.09,0,0,1,1.14-1.95,15.93,15.93,0,0,1-1.9-2.47A15.67,15.67,0,0,0,50.54,23.26Z"/></g></g><g id="group1087-27"><g id="shape1088-28"><path class="cls-1" d="M59,18.49a98.68,98.68,0,0,0,11.15,8.83,10.76,10.76,0,0,0,.33-1.06,95,95,0,0,1-9.83-8.81A17.67,17.67,0,0,0,59,18.49Z"/></g></g><g id="group1089-30"><g id="shape1090-31"><path class="cls-1" d="M58.38,15.08c-1.1-1.18-2.22-2.44-3.36-3.8a11.09,11.09,0,0,0-1.59.66,26.8,26.8,0,0,0,3.24,4.23A15.69,15.69,0,0,1,58.38,15.08Z"/></g></g><g id="shape1091-33"><path class="cls-1" d="M58.45,15a18.74,18.74,0,0,0-1.87,1.19c.72.79,1.45,1.59,2.25,2.36.57-.41,1.34-.89,1.87-1.19C60,16.67,59.21,15.88,58.45,15Z"/></g><g id="shape1092-35"><path class="cls-1" d="M58.25,14.94a14.89,14.89,0,0,0-1.67,1.13c.72.78,1.74,1.8,2.54,2.57a18.53,18.53,0,0,1,1.58-1.11C60,16.8,59,15.78,58.25,14.94Z"/></g></g><g id="group1093-37"><g id="shape1094-38"><path class="cls-1" d="M64.3,21.49a2.71,2.71,0,0,0-.48,3.71,2.55,2.55,0,0,0,3.63.5A2.72,2.72,0,0,0,67.93,22,2.55,2.55,0,0,0,64.3,21.49Z"/></g></g><g id="group1095-40"><g id="shape1096-41"><path class="cls-1" d="M49.34,28.11a2.51,2.51,0,0,0-.45,3.43,2.37,2.37,0,0,0,3.36.46,2.49,2.49,0,0,0,.44-3.43A2.35,2.35,0,0,0,49.34,28.11Z"/></g></g><g id="group1097-43"><g id="shape1098-44"><path class="cls-1" d="M50,20.3a3.79,3.79,0,0,0-.68,5.21,3.57,3.57,0,0,0,5.1.69A3.8,3.8,0,0,0,55.08,21,3.58,3.58,0,0,0,50,20.3Z"/></g></g></g></g><g id="shape1099-49"><path class="cls-1" d="M191.76,10.11h-20.5a1.1,1.1,0,0,0-1.09,1.11V28a1.09,1.09,0,0,0,1.09,1.1h5.28a3.29,3.29,0,0,0,3.21,2.27,3.37,3.37,0,0,0,0-6.74,3.29,3.29,0,0,0-3.21,2.27h-4.19v-12h18.31v12h-3.45a7.61,7.61,0,0,0-7.46-6.57,8.25,8.25,0,0,0-3.64.92l1,2a5.28,5.28,0,0,1,2.55-.68,5.46,5.46,0,0,1,0,10.92,5.28,5.28,0,0,1-2.55-.68l-1,2a7.51,7.51,0,0,0,3.64.92,7.61,7.61,0,0,0,7.46-6.57h4.55a1.09,1.09,0,0,0,1.09-1.1V11.22A1.14,1.14,0,0,0,191.76,10.11Z"/></g><g id="shape1100-52"><g id="lend5"><path class="cls-2" d="M161.69,18.87l8.05,4-8,4a9,9,0,0,0,0-8"/></g></g><g id="group1101-58"><g id="group1102-59"><g id="group1103-60"><g id="group1104-61"><g id="shape1105-62"><path class="cls-1" d="M7.85,15.21a4.49,4.49,0,0,0-3,5.66c.66,2.55,3,4.22,5.27,3.66a4.49,4.49,0,0,0,3-5.66C12.57,16.2,10.16,14.54,7.85,15.21Z"/></g></g><g id="group1106-64"><g id="shape1107-65"><path class="cls-1" d="M12.79,25.22c-.44,0-.88.78-1.54,1.11s-1.32.89-3.18,0S6,24.66,4.44,24.66.38,27.44.38,31.55H16a12.09,12.09,0,0,0-1.1-4.22C13.77,25.22,13.23,25.22,12.79,25.22Z"/></g></g></g></g><g id="group1108-67"><g id="shape1109-68"><path class="cls-3" d="M14.19,20.28H10.07a.71.71,0,0,0-.65.65v2.85a.73.73,0,0,0,.76.66h.76v5.15a1,1,0,0,0,1,1.1,1,1,0,0,0,1-1h.21V29c0-.22.33-.33.33-.33v-.33c-.33-.1-.54-.32-.54-.43v-.33l.21-.22a3.53,3.53,0,0,0,.33-.55,2.4,2.4,0,0,1-.33-.55c-.1-.11-.1-.33-.21-.44v-.21a2.51,2.51,0,0,1,.76-1.1h.54a.71.71,0,0,0,.65-.66v-3A.63.63,0,0,0,14.19,20.28ZM11.8,29.81c0,.22,0,.33-.21.33s-.22-.22-.22-.33V25c0-.22.11-.33.22-.33s.21.22.21.33ZM12.13,22a.66.66,0,0,1,0-1.32.71.71,0,0,1,.65.66A.63.63,0,0,1,12.13,22Z"/></g><g id="shape1110-70"><path class="cls-4" d="M11.57,30.12a.25.25,0,0,1-.22-.23v-5a.22.22,0,1,1,.44,0V30C11.79,30.12,11.68,30.12,11.57,30.12Z"/></g><g id="shape1111-72"><ellipse class="cls-4" cx="12.14" cy="21.35" rx="0.66" ry="0.67"/></g></g></g></g><g id="text"><path d="M169.39,48.63h-.91l-.74-2h-3l-.7,2h-.91l2.68-7h.85Zm-1.92-2.7-1.1-3a2.59,2.59,0,0,1-.11-.46h0a2.6,2.6,0,0,1-.11.46l-1.09,3Z"/><path d="M171.24,46v2.65h-.82v-7h1.92a2.55,2.55,0,0,1,1.74.54,1.94,1.94,0,0,1,.62,1.55,2.13,2.13,0,0,1-.69,1.63,2.61,2.61,0,0,1-1.85.63Zm0-3.61v2.87h.86a1.88,1.88,0,0,0,1.29-.39,1.36,1.36,0,0,0,.45-1.09c0-.93-.55-1.39-1.64-1.39Z"/><path d="M176.84,48.63H176v-7h.82Z"/><path d="M181.13,46.16h-2.66v-.63h2.66Z"/><path d="M188.1,48.63h-.91l-.74-2h-3l-.7,2h-.91l2.68-7h.85Zm-1.92-2.7-1.1-3a4,4,0,0,1-.11-.46h0a3.68,3.68,0,0,1-.12.46l-1.09,3Z"/><path d="M189.84,47.91h0v3H189v-7.3h.8v.88h0a1.89,1.89,0,0,1,1.73-1,1.82,1.82,0,0,1,1.51.67,2.8,2.8,0,0,1,.54,1.8,3.07,3.07,0,0,1-.61,2,2,2,0,0,1-1.67.76A1.67,1.67,0,0,1,189.84,47.91Zm0-2v.7a1.49,1.49,0,0,0,.41,1,1.3,1.3,0,0,0,1,.43,1.33,1.33,0,0,0,1.14-.56A2.56,2.56,0,0,0,192.8,46a2,2,0,0,0-.38-1.31,1.28,1.28,0,0,0-1-.48,1.43,1.43,0,0,0-1.12.49A1.75,1.75,0,0,0,189.82,45.89Z"/><path d="M195.72,47.91h0v3h-.8v-7.3h.8v.88h0a1.89,1.89,0,0,1,1.73-1,1.83,1.83,0,0,1,1.51.67,2.8,2.8,0,0,1,.54,1.8,3.07,3.07,0,0,1-.61,2,2,2,0,0,1-1.67.76A1.67,1.67,0,0,1,195.72,47.91Zm0-2v.7a1.53,1.53,0,0,0,.4,1,1.44,1.44,0,0,0,2.17-.13,2.56,2.56,0,0,0,.41-1.54,2,2,0,0,0-.39-1.31,1.25,1.25,0,0,0-1-.48,1.42,1.42,0,0,0-1.12.49A1.75,1.75,0,0,0,195.7,45.89Z"/><path d="M30.77,50.09v-1a1.73,1.73,0,0,0,.4.26,2.55,2.55,0,0,0,.48.2l.52.12a2.8,2.8,0,0,0,.48,0,1.94,1.94,0,0,0,1.13-.28,1.07,1.07,0,0,0,.25-1.3,1.59,1.59,0,0,0-.35-.39,3.92,3.92,0,0,0-.52-.33l-.64-.33c-.25-.13-.48-.25-.69-.38a3.46,3.46,0,0,1-.55-.42,1.71,1.71,0,0,1-.37-.52A1.79,1.79,0,0,1,31,44.3a1.82,1.82,0,0,1,.55-.59,2.75,2.75,0,0,1,.78-.34,3.8,3.8,0,0,1,.89-.11,3.37,3.37,0,0,1,1.51.25v.92A2.73,2.73,0,0,0,33.13,44a2.48,2.48,0,0,0-.54.06,1.45,1.45,0,0,0-.48.18,1,1,0,0,0-.34.33.83.83,0,0,0-.13.49,1,1,0,0,0,.1.46,1.07,1.07,0,0,0,.29.36,3.33,3.33,0,0,0,.48.31l.65.33a8.06,8.06,0,0,1,.71.39,3.44,3.44,0,0,1,.59.46,1.94,1.94,0,0,1,.4.55,1.52,1.52,0,0,1,.15.69,1.82,1.82,0,0,1-.2.88,1.7,1.7,0,0,1-.55.58,2.23,2.23,0,0,1-.79.32,4.19,4.19,0,0,1-.95.11l-.41,0-.5-.08a3.36,3.36,0,0,1-.48-.13A1.21,1.21,0,0,1,30.77,50.09Z"/><path d="M36.71,44.11a.53.53,0,0,1-.37-.15.53.53,0,0,1,0-.74.53.53,0,0,1,.37-.15.5.5,0,0,1,.37.15.47.47,0,0,1,.16.37.49.49,0,0,1-.16.37A.5.5,0,0,1,36.71,44.11Zm.39,6.27h-.8v-5h.8Z"/><path d="M42.87,50.38h-.8V47.53c0-1.06-.39-1.6-1.16-1.6a1.26,1.26,0,0,0-1,.46,1.64,1.64,0,0,0-.4,1.14v2.85h-.8v-5h.8v.83h0a1.82,1.82,0,0,1,1.64-1,1.55,1.55,0,0,1,1.26.53,2.34,2.34,0,0,1,.43,1.53Z"/><path d="M48.65,50c0,1.83-.88,2.75-2.64,2.75a3.58,3.58,0,0,1-1.62-.35v-.8a3.35,3.35,0,0,0,1.61.47c1.23,0,1.85-.66,1.85-2v-.55h0a1.87,1.87,0,0,1-1.72,1,1.89,1.89,0,0,1-1.5-.67A2.67,2.67,0,0,1,44,48a3.11,3.11,0,0,1,.61-2,2.06,2.06,0,0,1,1.68-.75,1.64,1.64,0,0,1,1.5.81h0v-.69h.8Zm-.8-1.86v-.74a1.45,1.45,0,0,0-.4-1,1.36,1.36,0,0,0-1-.43,1.39,1.39,0,0,0-1.16.54A2.43,2.43,0,0,0,44.86,48a2,2,0,0,0,.4,1.33,1.32,1.32,0,0,0,1.07.5,1.41,1.41,0,0,0,1.1-.48A1.77,1.77,0,0,0,47.85,48.12Z"/><path d="M51.07,50.38h-.8V43h.8Z"/><path d="M56.71,48.08H53.18a1.87,1.87,0,0,0,.45,1.29,1.56,1.56,0,0,0,1.18.45,2.41,2.41,0,0,0,1.55-.56V50a2.89,2.89,0,0,1-1.74.48A2.08,2.08,0,0,1,53,49.81,3.18,3.18,0,0,1,53,46a2.12,2.12,0,0,1,1.64-.74,1.85,1.85,0,0,1,1.52.64,2.63,2.63,0,0,1,.54,1.76Zm-.82-.68a1.62,1.62,0,0,0-.33-1.08,1.14,1.14,0,0,0-.92-.39,1.28,1.28,0,0,0-1,.41,1.78,1.78,0,0,0-.49,1.06Z"/><path d="M60.48,47.91H57.81v-.63h2.67Z"/><path d="M62.85,47.73v2.65H62v-7H64a2.55,2.55,0,0,1,1.74.54,2,2,0,0,1,.62,1.55,2.16,2.16,0,0,1-.68,1.63,2.65,2.65,0,0,1-1.86.63Zm0-3.61V47h.86A1.89,1.89,0,0,0,65,46.6a1.36,1.36,0,0,0,.45-1.09c0-.93-.55-1.39-1.64-1.39Z"/><path d="M70.76,50.38H70V49.6h0a1.68,1.68,0,0,1-1.54.9,1.66,1.66,0,0,1-1.17-.4,1.36,1.36,0,0,1-.42-1.05c0-.93.55-1.48,1.65-1.63l1.5-.21c0-.85-.35-1.28-1-1.28a2.46,2.46,0,0,0-1.63.62v-.82a3.1,3.1,0,0,1,1.7-.47c1.17,0,1.76.62,1.76,1.87ZM70,47.85,68.75,48a2.11,2.11,0,0,0-.84.28.79.79,0,0,0-.28.7.78.78,0,0,0,.26.6,1,1,0,0,0,.7.23,1.29,1.29,0,0,0,1-.42,1.47,1.47,0,0,0,.39-1Z"/><path d="M76.54,50c0,1.83-.88,2.75-2.64,2.75a3.58,3.58,0,0,1-1.62-.35v-.8a3.35,3.35,0,0,0,1.61.47c1.23,0,1.84-.66,1.84-2v-.55h0a2,2,0,0,1-3.21.29A2.67,2.67,0,0,1,71.93,48a3.11,3.11,0,0,1,.61-2,2.06,2.06,0,0,1,1.68-.75,1.61,1.61,0,0,1,1.49.81h0v-.69h.81Zm-.81-1.86v-.74a1.41,1.41,0,0,0-.4-1,1.34,1.34,0,0,0-1-.43,1.38,1.38,0,0,0-1.16.54A2.43,2.43,0,0,0,72.75,48a2,2,0,0,0,.4,1.33,1.31,1.31,0,0,0,1.07.5,1.38,1.38,0,0,0,1.09-.48A1.77,1.77,0,0,0,75.73,48.12Z"/><path d="M82.17,48.08H78.64a2,2,0,0,0,.45,1.29,1.57,1.57,0,0,0,1.19.45,2.41,2.41,0,0,0,1.55-.56V50a2.9,2.9,0,0,1-1.75.48,2.09,2.09,0,0,1-1.66-.69,2.79,2.79,0,0,1-.61-1.91,2.74,2.74,0,0,1,.67-1.9,2.11,2.11,0,0,1,1.64-.74,1.87,1.87,0,0,1,1.52.64,2.62,2.62,0,0,1,.53,1.76Zm-.82-.68A1.62,1.62,0,0,0,81,46.32a1.13,1.13,0,0,0-.92-.39,1.32,1.32,0,0,0-1,.41,1.91,1.91,0,0,0-.49,1.06Z"/><path d="M85.94,47.91H83.28v-.63h2.66Z"/><path d="M31.59,55.38l-2,7h-1l-1.44-5.12a3.19,3.19,0,0,1-.12-.71h0a4.1,4.1,0,0,1-.12.7L25.5,62.38h-1l-2.05-7h.91l1.49,5.37a3.2,3.2,0,0,1,.11.7h0a3.88,3.88,0,0,1,.15-.7l1.55-5.37h.78L29,60.79a4.48,4.48,0,0,1,.12.65h0a4.24,4.24,0,0,1,.14-.67l1.43-5.39Z"/><path d="M36.15,60.08H32.62a1.87,1.87,0,0,0,.45,1.29,1.54,1.54,0,0,0,1.18.45,2.41,2.41,0,0,0,1.55-.56V62a2.89,2.89,0,0,1-1.74.48,2.11,2.11,0,0,1-1.67-.69,2.79,2.79,0,0,1-.6-1.91,2.73,2.73,0,0,1,.66-1.9,2.12,2.12,0,0,1,1.64-.74,1.86,1.86,0,0,1,1.52.64,2.63,2.63,0,0,1,.54,1.76Zm-.82-.68A1.68,1.68,0,0,0,35,58.32a1.12,1.12,0,0,0-.91-.39,1.32,1.32,0,0,0-1,.41,1.83,1.83,0,0,0-.48,1.06Z"/><path d="M38.18,61.66h0v.72h-.8V55h.8v3.28h0a1.88,1.88,0,0,1,1.73-1,1.81,1.81,0,0,1,1.5.67,2.74,2.74,0,0,1,.55,1.8,3.13,3.13,0,0,1-.61,2,2.06,2.06,0,0,1-1.67.76A1.65,1.65,0,0,1,38.18,61.66Zm0-2v.7a1.48,1.48,0,0,0,.4,1,1.33,1.33,0,0,0,1,.43,1.31,1.31,0,0,0,1.14-.56,2.49,2.49,0,0,0,.42-1.54,2,2,0,0,0-.39-1.31,1.26,1.26,0,0,0-1-.48,1.45,1.45,0,0,0-1.13.49A1.79,1.79,0,0,0,38.16,59.64Z"/><path d="M46.82,62.38H46V61.6h0a1.69,1.69,0,0,1-1.54.9,1.66,1.66,0,0,1-1.17-.4,1.36,1.36,0,0,1-.42-1.05c0-.93.55-1.48,1.65-1.63L46,59.21c0-.85-.34-1.28-1-1.28a2.48,2.48,0,0,0-1.63.62v-.82a3.15,3.15,0,0,1,1.7-.47c1.18,0,1.77.62,1.77,1.87ZM46,59.85l-1.2.16a2.11,2.11,0,0,0-.84.28.79.79,0,0,0-.28.7.75.75,0,0,0,.26.6,1,1,0,0,0,.69.23,1.29,1.29,0,0,0,1-.42,1.46,1.46,0,0,0,.38-1Z"/><path d="M52.47,62.38h-.8V59.53c0-1.06-.38-1.6-1.16-1.6a1.26,1.26,0,0,0-1,.46,1.68,1.68,0,0,0-.39,1.14v2.85h-.81v-5h.81v.83h0a1.82,1.82,0,0,1,1.65-1,1.54,1.54,0,0,1,1.25.53,2.34,2.34,0,0,1,.43,1.53Z"/><path d="M60.28,57.38l-1.5,5H58l-1-3.58a2.92,2.92,0,0,1-.08-.46h0a2.37,2.37,0,0,1-.11.45L55.6,62.38h-.8l-1.51-5h.84l1,3.76a2.23,2.23,0,0,1,.06.45h0a2,2,0,0,1,.09-.46l1.15-3.75h.74l1,3.77a2.37,2.37,0,0,1,.07.45h0a2.23,2.23,0,0,1,.09-.45l1-3.77Z"/><path d="M65.23,60.08H61.7a1.87,1.87,0,0,0,.45,1.29,1.54,1.54,0,0,0,1.18.45,2.41,2.41,0,0,0,1.55-.56V62a2.89,2.89,0,0,1-1.74.48,2.11,2.11,0,0,1-1.67-.69,2.79,2.79,0,0,1-.6-1.91,2.73,2.73,0,0,1,.66-1.9,2.12,2.12,0,0,1,1.64-.74,1.86,1.86,0,0,1,1.52.64,2.63,2.63,0,0,1,.54,1.76Zm-.82-.68a1.62,1.62,0,0,0-.34-1.08,1.12,1.12,0,0,0-.91-.39,1.28,1.28,0,0,0-1,.41,1.78,1.78,0,0,0-.49,1.06Z"/><path d="M70.59,62.38h-.8V59.53c0-1.06-.39-1.6-1.16-1.6a1.3,1.3,0,0,0-1,.46,1.68,1.68,0,0,0-.39,1.14v2.85h-.8v-5h.8v.83h0a1.81,1.81,0,0,1,1.64-1,1.55,1.55,0,0,1,1.26.53,2.34,2.34,0,0,1,.43,1.53Z"/><path d="M76.37,62.38h-.8v-.85h0a2,2,0,0,1-3.23.29A2.75,2.75,0,0,1,71.76,60a3,3,0,0,1,.62-2,2.06,2.06,0,0,1,1.67-.75,1.62,1.62,0,0,1,1.5.81h0V55h.8Zm-.8-2.26v-.74a1.48,1.48,0,0,0-.4-1,1.36,1.36,0,0,0-1-.42,1.37,1.37,0,0,0-1.15.54A2.36,2.36,0,0,0,72.58,60a2.1,2.1,0,0,0,.4,1.36,1.33,1.33,0,0,0,1.08.5,1.38,1.38,0,0,0,1.09-.48A1.79,1.79,0,0,0,75.57,60.12Z"/><path d="M82,62.38h-.8v-.79h0a1.66,1.66,0,0,1-1.54.91c-1.19,0-1.79-.71-1.79-2.13v-3h.8v2.86c0,1,.4,1.58,1.21,1.58a1.21,1.21,0,0,0,1-.43,1.68,1.68,0,0,0,.38-1.13V57.38H82Z"/><path d="M87.8,62.38H87V59.53c0-1.06-.39-1.6-1.17-1.6a1.26,1.26,0,0,0-1,.46,1.68,1.68,0,0,0-.39,1.14v2.85h-.8v-5h.8v.83h0a1.8,1.8,0,0,1,1.64-1,1.54,1.54,0,0,1,1.25.53,2.35,2.35,0,0,1,.44,1.53Z"/><path d="M93.57,62c0,1.83-.88,2.75-2.63,2.75a3.58,3.58,0,0,1-1.62-.35v-.8a3.35,3.35,0,0,0,1.61.47c1.23,0,1.84-.66,1.84-2v-.55h0a1.87,1.87,0,0,1-1.72,1,1.89,1.89,0,0,1-1.5-.67A2.67,2.67,0,0,1,89,60a3.11,3.11,0,0,1,.62-2,2,2,0,0,1,1.67-.75,1.62,1.62,0,0,1,1.5.81h0v-.69h.8Zm-.8-1.86v-.74a1.41,1.41,0,0,0-.4-1,1.34,1.34,0,0,0-1-.43,1.4,1.4,0,0,0-1.17.54A2.43,2.43,0,0,0,89.78,60a2.05,2.05,0,0,0,.41,1.33,1.3,1.3,0,0,0,1.06.5,1.4,1.4,0,0,0,1.1-.48A1.77,1.77,0,0,0,92.77,60.12Z"/><path class="cls-5" d="M87.76,13.38h-.82v-7h.82Z"/><path class="cls-5" d="M96.6,13.38h-.81V10.51a2.17,2.17,0,0,0-.25-1.2,1,1,0,0,0-.86-.37,1,1,0,0,0-.87.46,1.82,1.82,0,0,0-.36,1.13v2.85h-.8v-3q0-1.47-1.14-1.47a1,1,0,0,0-.87.44,1.81,1.81,0,0,0-.34,1.15v2.85h-.8v-5h.8v.79h0a1.7,1.7,0,0,1,1.55-.91,1.47,1.47,0,0,1,1.42,1,1.78,1.78,0,0,1,1.66-1q1.65,0,1.65,2Z"/><path class="cls-5" d="M98.93,12.66h0v3h-.8V8.38h.8v.88h0a1.88,1.88,0,0,1,1.73-1,1.86,1.86,0,0,1,1.51.67,2.8,2.8,0,0,1,.54,1.8,3.07,3.07,0,0,1-.61,2,2,2,0,0,1-1.67.76A1.67,1.67,0,0,1,98.93,12.66Zm0-2v.7a1.48,1.48,0,0,0,.4,1.05,1.45,1.45,0,0,0,2.17-.12,2.6,2.6,0,0,0,.41-1.55,2,2,0,0,0-.39-1.31,1.24,1.24,0,0,0-1-.47,1.44,1.44,0,0,0-1.13.48A1.81,1.81,0,0,0,98.91,10.64Z"/><path class="cls-5" d="M104.79,13.38H104V6h.8Z"/><path class="cls-5" d="M106.82,7.11a.51.51,0,0,1-.37-.15.48.48,0,0,1-.15-.37.5.5,0,0,1,.15-.37.51.51,0,0,1,.37-.15.5.5,0,0,1,.37.15.51.51,0,0,1,0,.74A.5.5,0,0,1,106.82,7.11Zm.39,6.27h-.8v-5h.8Z"/><path class="cls-5" d="M112.32,8.61l-3,4.09h2.93v.68h-4.11v-.25l3-4.07h-2.68V8.38h3.86Z"/><path class="cls-5" d="M113.76,7.11A.49.49,0,0,1,113.4,7a.48.48,0,0,1-.15-.37.5.5,0,0,1,.15-.37.49.49,0,0,1,.36-.15.54.54,0,0,1,.38.15.53.53,0,0,1,0,.74A.54.54,0,0,1,113.76,7.11Zm.39,6.27h-.8v-5h.8Z"/><path class="cls-5" d="M118.09,13.33a1.53,1.53,0,0,1-.74.16Q116,13.49,116,12v-3h-.86V8.38H116V7.16l.8-.26V8.38h1.26v.68h-1.26v2.82a1.11,1.11,0,0,0,.18.72.68.68,0,0,0,.56.21.83.83,0,0,0,.52-.16Z"/><path class="cls-5" d="M123.18,11.08h-3.53a1.88,1.88,0,0,0,.45,1.29,1.56,1.56,0,0,0,1.18.45,2.48,2.48,0,0,0,1.56-.55V13a2.9,2.9,0,0,1-1.75.48,2.12,2.12,0,0,1-1.66-.68,2.78,2.78,0,0,1-.61-1.92,2.73,2.73,0,0,1,.66-1.9,2.13,2.13,0,0,1,1.65-.74,1.87,1.87,0,0,1,1.52.64,2.68,2.68,0,0,1,.53,1.76Zm-.82-.68A1.62,1.62,0,0,0,122,9.32a1.14,1.14,0,0,0-.92-.38,1.28,1.28,0,0,0-1,.4,1.87,1.87,0,0,0-.49,1.06Z"/><path class="cls-5" d="M127,9.19a1,1,0,0,0-.6-.16,1,1,0,0,0-.86.48,2.22,2.22,0,0,0-.35,1.32v2.55h-.8v-5h.8v1h0a1.72,1.72,0,0,1,.53-.82,1.16,1.16,0,0,1,.78-.3,1.22,1.22,0,0,1,.48.07Z"/><path class="cls-5" d="M134.27,7.12h-2.73V9.54h2.53v.74h-2.53v3.1h-.82v-7h3.55Z"/><path class="cls-5" d="M136.29,13.38h-.8V6h.8Z"/><path class="cls-5" d="M140,13.5a2.34,2.34,0,0,1-1.77-.7,2.61,2.61,0,0,1-.66-1.86,2.7,2.7,0,0,1,.69-2,2.49,2.49,0,0,1,1.86-.71,2.25,2.25,0,0,1,1.75.69,2.73,2.73,0,0,1,.62,1.91,2.69,2.69,0,0,1-.67,1.92A2.38,2.38,0,0,1,140,13.5Zm.06-4.56a1.52,1.52,0,0,0-1.22.52,2.15,2.15,0,0,0-.45,1.45,2,2,0,0,0,.46,1.4,1.53,1.53,0,0,0,1.21.51,1.46,1.46,0,0,0,1.2-.5,2.23,2.23,0,0,0,.41-1.43,2.28,2.28,0,0,0-.41-1.45A1.49,1.49,0,0,0,140.06,8.94Z"/><path class="cls-5" d="M150.07,8.38l-1.5,5h-.83l-1-3.58a2.92,2.92,0,0,1-.08-.46h0a2.21,2.21,0,0,1-.11.45l-1.12,3.59h-.8l-1.51-5h.84l1,3.76a2.23,2.23,0,0,1,.06.45h0a2.07,2.07,0,0,1,.09-.46l1.15-3.75H147l1,3.77a2.37,2.37,0,0,1,.07.45h0a2.23,2.23,0,0,1,.09-.45l1-3.77Z"/><rect class="cls-2" x="72.98" y="21.99" width="90.64" height="1.75" rx="0.76"/></g></svg>