<?xml version="1.0" encoding="utf-8"?>
<!-- Generator: Adobe Illustrator 23.0.6, SVG Export Plug-In . SVG Version: 6.00 Build 0)  -->
<svg version="1.1" xmlns="http://www.w3.org/2000/svg" xmlns:xlink="http://www.w3.org/1999/xlink" x="0px" y="0px" width="204.7px"
	 height="64.8px" viewBox="0 0 204.7 64.8" style="enable-background:new 0 0 204.7 64.8;" xml:space="preserve">
<style type="text/css">
	.st0{fill-rule:evenodd;clip-rule:evenodd;fill:#008BFD;}
	.st1{fill-rule:evenodd;clip-rule:evenodd;fill:#505050;}
	
		.st2{fill-rule:evenodd;clip-rule:evenodd;fill:#008BFD;stroke:#808080;stroke-width:0.75;stroke-linecap:round;stroke-linejoin:round;stroke-miterlimit:3;}
	.st3{fill-rule:evenodd;clip-rule:evenodd;fill:#FFFFFF;}
	.st4{fill:#505050;}
	.st5{fill:none;}
	.st6{font-family:'SegoeUI';}
	.st7{font-size:10px;}
	.st8{fill:#00B0F0;}
	.st9{display:none;}
	.st10{display:inline;}
	.st11{enable-background:new    ;}
	.st12{fill:#00B0F0;enable-background:new    ;}
	.st13{display:inline;fill:#505050;}
</style>
<g id="shapes">
	<g id="group1113-2_1_">
		<g id="shape1114-3_1_">
			<path class="st0" d="M66,40.4c-2.2,1.7-4.8,2.5-7.3,2.5c-3.6,0-7.2-1.7-9.5-4.8c-4-5.4-3-13.1,2.2-17.3c2.2-1.7,4.8-2.5,7.3-2.5
				c3.6,0,7.2,1.7,9.5,4.8C72.3,28.5,71.3,36.3,66,40.4z M69.7,22c-2.7-3.7-6.8-5.6-11-5.6c-2.9,0-5.9,1-8.4,2.9
				c-6,4.8-7.2,13.7-2.5,19.9c2.7,3.7,6.8,5.5,11,5.5c2.9,0,5.9-0.9,8.4-2.9C73.2,37.1,74.3,28.2,69.7,22z"/>
		</g>
	</g>
	<g id="group1117-7_1_" transform="translate(0.437248,3.2685E-13)">
		<g id="shape1118-8_1_">
			<path class="st0" d="M52.1,33.2c-0.8-0.8-1.4-1.6-2-2.4c-1.1,2.4-1.6,4.9-1.7,6.9c0.1,0.2,0.1,0.3,0.2,0.4c0.6,0.8,1.3,1.5,2,2
				C50.6,38.6,50.7,35.9,52.1,33.2z"/>
		</g>
	</g>
	<g id="shape1119-10_1_" transform="translate(3.29213,-8.97695)">
		<path class="st0" d="M53.4,32.7c-1.1,0.8-2.2,1.8-3.3,3c-0.6,0.7-1.2,1.3-1.6,2c0.5,0.8,1.1,1.6,1.9,2.5c0.6-0.9,1.3-1.7,2.2-2.6
			c1.1-1.1,2.1-1.9,3.1-2.6C54.9,34.3,54.1,33.5,53.4,32.7z"/>
	</g>
	<g id="group1120-12_1_" transform="translate(9.93516,-15.1958)">
		<g id="shape1121-13_1_">
			<path class="st0" d="M58.2,38.1c-0.5-0.7-1.1-1.3-1.7-1.8c-1.9-0.3-4.7-0.3-8,1.5c0.8,0.8,1.5,1.6,2.2,2.4
				C55.1,37.8,58.2,38.1,58.2,38.1z"/>
		</g>
	</g>
	<g id="group1122-15_1_" transform="translate(1.10162E-13,-9.38012)">
		<g id="shape1123-16_1_">
			<path class="st0" d="M50,30.8c0.3-0.7,0.7-1.4,1.2-2.1c-1.9-3.1-1.8-5.6-1.6-6.8c-0.5,0.5-0.9,1-1.3,1.6
				C47.9,25.2,47.9,27.8,50,30.8z"/>
		</g>
	</g>
	<g id="group1124-18_1_" transform="translate(4.05148,-0.740211)">
		<g id="shape1125-19_1_">
			<path class="st0" d="M51.8,34.1c-0.9-0.7-1.6-1.4-2.3-2.1c-0.5,0.7-0.8,1.3-1.1,2c0.6,0.6,1.3,1.3,2.1,1.9
				c4.9,4,9.8,4.4,12.6,4.4c0.2,0,1-1.2,1.5-1.9C63.4,38.5,58.1,39.2,51.8,34.1z"/>
		</g>
	</g>
	<g id="group1126-21_1_" transform="translate(2.10339,-7.03041)">
		<g id="shape1127-22_1_">
			<path class="st0" d="M48.4,37.9c0.5,0.8,1.2,1.5,2,2.3c0.3-0.6,0.7-1.3,1.1-1.9c-0.8-0.9-1.4-1.7-1.9-2.5
				C49.2,36.5,48.8,37.2,48.4,37.9z"/>
		</g>
	</g>
	<g id="group1128-24_1_" transform="translate(10.5195,-5.3233)">
		<g id="shape1129-25_1_">
			<path class="st0" d="M48.4,31.4c4.5,4.3,9.8,7.9,11.2,8.8c0.1-0.3,0.2-0.7,0.3-1c-1.5-1.1-5.3-4.2-9.8-8.8
				C49.6,30.6,49,31,48.4,31.4z"/>
		</g>
	</g>
	<g id="group1130-27_1_" transform="translate(4.98729,-16.4714)">
		<g id="shape1131-28_1_">
			<path class="st0" d="M53.4,39.1c-1.1-1.2-2.2-2.5-3.4-3.8c-0.5,0.2-1.1,0.4-1.6,0.7c0.8,1.4,2,2.8,3.2,4.2
				C52.3,39.8,52.8,39.4,53.4,39.1z"/>
		</g>
	</g>
	<g id="shape1132-30_1_" transform="translate(8.13763,-14.0503)">
		<path class="st0" d="M50.3,36.7c-0.6,0.3-1.3,0.8-1.9,1.2c0.7,0.8,1.5,1.6,2.3,2.3c0.6-0.4,1.3-0.9,1.9-1.2
			C51.8,38.3,51.1,37.5,50.3,36.7z"/>
	</g>
	<g id="shape1133-32_1_" transform="translate(8.1369,-14.0039)">
		<path class="st0" d="M50.1,36.5c-0.6,0.3-1.1,0.7-1.7,1.1c0.7,0.8,1.7,1.8,2.5,2.6c0.6-0.4,1-0.8,1.6-1.1
			C51.8,38.4,50.9,37.3,50.1,36.5z"/>
	</g>
	<g id="group1134-34_1_" transform="translate(14.8617,-6.23662)">
		<g id="shape1135-35_1_">
			<path class="st0" d="M49.4,35.3c-1.1,0.9-1.3,2.5-0.5,3.7c0.9,1.2,2.5,1.4,3.6,0.5c1.1-0.9,1.3-2.6,0.5-3.7
				C52.2,34.6,50.6,34.4,49.4,35.3z"/>
		</g>
	</g>
	<g id="group1136-37_1_" transform="translate(9.65099,-2.13163E-13)">
		<g id="shape1137-38_1_">
			<path class="st0" d="M49.3,35.7c-1,0.8-1.2,2.4-0.5,3.4c0.8,1.1,2.3,1.3,3.4,0.5c1-0.8,1.2-2.3,0.4-3.4
				C51.9,35.1,50.4,34.9,49.3,35.7z"/>
		</g>
	</g>
	<g id="group1138-40_1_" transform="translate(0,-5.36433)">
		<g id="shape1139-41_1_">
			<path class="st0" d="M50,33.2c-1.6,1.3-1.9,3.6-0.7,5.2c1.2,1.6,3.5,1.9,5.1,0.7s1.9-3.6,0.7-5.2C53.9,32.3,51.6,32,50,33.2z"/>
		</g>
	</g>
	<path class="st0" d="M191.8,17.8h-20.5c-0.6,0-1.1,0.5-1.1,1.1v16.7c0,0.6,0.5,1.1,1.1,1.1h5.3c0.4,1.3,1.7,2.3,3.2,2.3
		c1.8,0,3.3-1.5,3.3-3.4c0-1.8-1.5-3.4-3.3-3.4c-1.5,0-2.8,0.9-3.2,2.3h-4.2V22.6h18.3v11.9h-3.4c-0.5-3.7-3.7-6.6-7.5-6.6
		c-1.3,0-2.5,0.4-3.6,0.9l1,2c0.7-0.4,1.7-0.7,2.6-0.7c2.9,0,5.4,2.5,5.4,5.5c0,3-2.4,5.5-5.4,5.5c-0.9,0-1.8-0.3-2.6-0.7l-1,2
		c1.1,0.6,2.4,0.9,3.6,0.9c3.8,0,7-2.9,7.5-6.6h4.6c0.6,0,1.1-0.5,1.1-1.1V19C192.9,18.4,192.4,17.8,191.8,17.8z"/>
	<g id="shape1142-51_1_" transform="translate(73.5133,-41.2635)">
		<g transform="scale(-2.68,-2.68) ">
			<g id="lend5_1_">
				<path class="st1" d="M88.2,67.9l8,4l-8,4C89.5,73.3,89.5,70.4,88.2,67.9"/>
			</g>
		</g>
	</g>
	<g id="group1143-57_1_" transform="translate(0.375,-25.6729)">
		<g id="group1144-58_1_">
			<g id="group1145-59_1_">
				<g id="group1146-60_1_" transform="translate(3.8518,-6.4617)">
					<g id="shape1147-61_1_">
						<path class="st0" d="M3.6,54.9c-2.3,0.6-3.6,3.1-3,5.7c0.7,2.5,3,4.2,5.3,3.7c2.3-0.6,3.6-3.1,3-5.7
							C8.3,55.9,5.9,54.2,3.6,54.9z"/>
					</g>
				</g>
				<g id="group1148-63_1_">
					<g id="shape1149-64_1_">
						<path class="st0" d="M12.4,58.5c-0.4,0-0.9,0.8-1.5,1.1c-0.7,0.3-1.3,0.9-3.2,0c-1.9-0.9-2.1-1.7-3.6-1.7
							c-1.5,0-4.1,2.8-4.1,6.9h15.6c0,0-0.2-2.8-1.1-4.2C13.4,58.5,12.9,58.5,12.4,58.5z"/>
					</g>
				</g>
			</g>
		</g>
		<g id="group1150-66_1_" transform="translate(9.0485,-0.85947)">
			<g id="shape1151-67_1_">
				<path class="st2" d="M4.8,54.4H0.7C0.3,54.4,0,54.7,0,55v2.9c0,0.3,0.3,0.7,0.8,0.7h0.8v5.1c0,0.7,0.4,1.1,1,1.1s1-0.4,1-1
					c0.1,0,0.2,0,0.2,0s0-0.5,0-0.7c0-0.2,0.3-0.3,0.3-0.3v-0.3c-0.3-0.1-0.5-0.3-0.5-0.4v-0.3c0.1-0.1,0.2-0.2,0.2-0.2
					C3.8,61.4,4,61,4,61s-0.3-0.4-0.3-0.5c-0.1-0.1-0.1-0.3-0.2-0.4v-0.2c0.1-0.5,0.8-1.1,0.8-1.1h0.5c0.3,0,0.7-0.3,0.7-0.7v-3
					C5.4,54.7,5.2,54.4,4.8,54.4z M2.4,63.9c0,0.2,0,0.3-0.2,0.3C2,64.2,2,64,2,63.9v-4.8c0-0.2,0.1-0.3,0.2-0.3
					c0.2,0,0.2,0.2,0.2,0.3V63.9z M2.7,56.1c-0.3,0-0.7-0.3-0.7-0.7c0-0.3,0.3-0.7,0.7-0.7c0.3,0,0.6,0.3,0.6,0.7
					C3.4,55.8,3.1,56.1,2.7,56.1z"/>
			</g>
			<g id="shape1152-69_1_" transform="translate(1.92482,-0.570755)">
				<path class="st3" d="M0.2,64.8c-0.1,0-0.2-0.1-0.2-0.2v-5c0-0.1,0.1-0.2,0.2-0.2s0.2,0.1,0.2,0.2v5.1
					C0.4,64.8,0.3,64.8,0.2,64.8z"/>
			</g>
			<g id="shape1153-71_1_" transform="translate(2.05993,-8.66317)">
				<ellipse class="st3" cx="0.7" cy="64.1" rx="0.7" ry="0.7"/>
			</g>
		</g>
	</g>
	<path class="st4" d="M163.3,31.5H73.7c-0.4,0-0.8-0.3-0.8-0.8v-0.2c0-0.4,0.3-0.8,0.8-0.8h89.5c0.4,0,0.8,0.3,0.8,0.8v0.2
		C164,31.1,163.7,31.5,163.3,31.5z"/>
</g>
<g id="text">
	<rect x="65.1" y="0.4" class="st5" width="114.2" height="20"/>
	<text transform="matrix(1 0 0 1 37.2411 57.7861)"><tspan x="0" y="0" class="st6 st7">W</tspan><tspan x="9" y="0" class="st6 st7">eb-App</tspan></text>
	<text transform="matrix(1 0 0 1 163.0499 56.369)" class="st6 st7">API-App</text>
	<text transform="matrix(1 0 0 1 68.9668 13.371)" class="st8 st6 st7">Autorisierungscodeflow</text>
</g>
<g id="src" xmlns:ev="http://www.w3.org/2001/xml-events" xmlns:v="http://schemas.microsoft.com/visio/2003/SVGExtensions/" class="st9">
	<g class="st10">
		<g id="group1112-1" transform="translate(43.141,-20.0036)">
			<g id="group1113-2">
				<g id="shape1114-3">
					<path class="st0" d="M22.9,60.4c-2.2,1.7-4.8,2.5-7.3,2.5c-3.6,0-7.2-1.7-9.6-4.8C2,52.7,3,45,8.3,40.8
						c2.2-1.7,4.8-2.5,7.3-2.5c3.6,0,7.2,1.7,9.5,4.8C29.2,48.5,28.2,56.3,22.9,60.4z M26.6,42c-2.7-3.7-6.8-5.6-11-5.6
						c-2.9,0-5.9,1-8.4,2.9C1.2,44.1,0,53,4.6,59.2c2.7,3.7,6.8,5.5,11,5.5c2.9,0,5.9-0.9,8.4-2.9C30,57.1,31.2,48.2,26.6,42z"/>
				</g>
			</g>
			<g id="group1115-5" transform="translate(4.95554,-4.39536)">
				<g id="group1116-6" transform="translate(0.341805,-0.176482)">
					<g id="group1117-7" transform="translate(0.437248,3.2685E-13)">
						<g id="shape1118-8">
							<path class="st0" d="M3.6,57.8c-0.8-0.8-1.4-1.6-2-2.3c-1.1,2.4-1.6,4.9-1.7,6.9c0.1,0.2,0.1,0.3,0.2,0.4
								c0.6,0.8,1.3,1.5,2,2C2.1,63.2,2.3,60.5,3.6,57.8z"/>
						</g>
					</g>
					<g id="shape1119-10" transform="translate(3.29213,-8.97695)">
						<path class="st0" d="M4.9,57.3c-1.1,0.8-2.2,1.8-3.3,3c-0.6,0.7-1.1,1.3-1.6,2c0.5,0.8,1.1,1.6,1.9,2.5
							c0.6-0.9,1.3-1.7,2.2-2.6c1.1-1.1,2.2-1.9,3.1-2.6C6.4,58.8,5.7,58.1,4.9,57.3z"/>
					</g>
					<g id="group1120-12" transform="translate(9.93516,-15.1958)">
						<g id="shape1121-13">
							<path class="st0" d="M9.8,62.7C9.3,62,8.7,61.4,8,60.9c-1.9-0.3-4.7-0.3-8,1.5c0.8,0.8,1.5,1.6,2.2,2.4
								C6.6,62.3,9.8,62.7,9.8,62.7z"/>
						</g>
					</g>
					<g id="group1122-15" transform="translate(1.10162E-13,-9.38012)">
						<g id="shape1123-16">
							<path class="st0" d="M2.1,64.8c0.3-0.7,0.7-1.4,1.2-2.1c-1.9-3.1-1.8-5.6-1.6-6.8c-0.5,0.5-0.9,1-1.3,1.6
								C0,59.1,0,61.7,2.1,64.8z"/>
						</g>
					</g>
					<g id="group1124-18" transform="translate(4.05148,-0.740211)">
						<g id="shape1125-19">
							<path class="st0" d="M3.4,58.7c-0.9-0.7-1.6-1.4-2.3-2.1c-0.5,0.7-0.8,1.3-1.1,2c0.6,0.6,1.3,1.3,2.1,1.9
								c4.9,4,9.8,4.4,12.6,4.4c0.2,0,1-1.2,1.5-1.9C15,63.1,9.7,63.8,3.4,58.7z"/>
						</g>
					</g>
					<g id="group1126-21" transform="translate(2.10339,-7.03041)">
						<g id="shape1127-22">
							<path class="st0" d="M0,62.4c0.5,0.8,1.1,1.5,2,2.3c0.3-0.6,0.7-1.3,1.1-1.9c-0.8-0.9-1.4-1.7-1.9-2.5
								C0.7,61,0.3,61.8,0,62.4z"/>
						</g>
					</g>
					<g id="group1128-24" transform="translate(10.5195,-5.3233)">
						<g id="shape1129-25">
							<path class="st0" d="M0,56c4.5,4.3,9.8,7.9,11.1,8.8c0.1-0.3,0.2-0.7,0.3-1c-1.4-1.1-5.3-4.2-9.8-8.8C1.1,55.2,0.6,55.6,0,56
								z"/>
						</g>
					</g>
					<g id="group1130-27" transform="translate(4.98729,-16.4714)">
						<g id="shape1131-28">
							<path class="st0" d="M5,63.7c-1.1-1.2-2.2-2.5-3.4-3.8C1,60.1,0.5,60.3,0,60.6c0.8,1.4,2,2.8,3.2,4.2C3.8,64.4,4.4,64,5,63.7
								z"/>
						</g>
					</g>
					<g id="shape1132-30" transform="translate(8.13763,-14.0503)">
						<path class="st0" d="M1.9,61.2C1.3,61.5,0.6,62,0,62.4c0.7,0.8,1.5,1.6,2.3,2.3c0.6-0.4,1.3-0.9,1.9-1.2
							C3.4,62.9,2.6,62.1,1.9,61.2z"/>
					</g>
					<g id="shape1133-32" transform="translate(8.1369,-14.0039)">
						<path class="st0" d="M1.7,61.1c-0.6,0.3-1.1,0.7-1.7,1.1C0.7,63,1.7,64,2.5,64.8c0.6-0.4,1-0.8,1.6-1.1
							C3.4,63,2.4,61.9,1.7,61.1z"/>
					</g>
				</g>
				<g id="group1134-34" transform="translate(14.8617,-6.23662)">
					<g id="shape1135-35">
						<path class="st0" d="M1.3,59.7c-1.1,0.9-1.3,2.5-0.5,3.7c0.9,1.2,2.5,1.4,3.6,0.5C5.6,63,5.8,61.3,5,60.2
							C4.1,59,2.5,58.8,1.3,59.7z"/>
					</g>
				</g>
				<g id="group1136-37" transform="translate(9.65099,-2.13163E-13)">
					<g id="shape1137-38">
						<path class="st0" d="M1.2,60.1c-1,0.8-1.2,2.4-0.4,3.4c0.8,1.1,2.3,1.3,3.4,0.5c1-0.8,1.2-2.3,0.4-3.4
							C3.8,59.5,2.3,59.3,1.2,60.1z"/>
					</g>
				</g>
				<g id="group1138-40" transform="translate(0,-5.36433)">
					<g id="shape1139-41">
						<path class="st0" d="M1.9,57.6c-1.6,1.3-1.9,3.6-0.7,5.2c1.2,1.6,3.5,1.9,5.1,0.7S8.2,60,7,58.3C5.8,56.7,3.5,56.4,1.9,57.6z"
							/>
					</g>
				</g>
			</g>
			<g id="shape1112-43">
				<text transform="matrix(1 0 0 1 -5.1098 77.79)" class="st11"><tspan x="0" y="0" class="st6 st7">W</tspan><tspan x="9" y="0" class="st6 st7">eb-App</tspan><v:paragraph  v:horizAlign="1"></v:paragraph><v:tabList></v:tabList></text>
			</g>
		</g>
		<g id="shape1140-45" transform="translate(65.0994,-44.409)">
			<rect x="0" y="44.8" class="st5" width="114.2" height="20"/>
			<text transform="matrix(1 0 0 1 4.3202 57.78)" class="st12 st6 st7">Autorisierungscodeflow<v:paragraph  v:horizAlign="1"></v:paragraph><v:tabList></v:tabList></text>
		</g>
		<g id="shape1141-48" transform="translate(170.17,-21.421)">
			<path class="st0" d="M21.6,39.3H1.1c-0.6,0-1.1,0.5-1.1,1.1v16.7c0,0.6,0.5,1.1,1.1,1.1h5.3c0.4,1.3,1.7,2.3,3.2,2.3
				c1.8,0,3.3-1.5,3.3-3.4s-1.5-3.4-3.3-3.4c-1.5,0-2.8,0.9-3.2,2.3H2.2V44.1h18.3V56H17c-0.5-3.7-3.7-6.6-7.5-6.6
				c-1.3,0-2.5,0.4-3.6,0.9l1,2c0.7-0.4,1.7-0.7,2.6-0.7c2.9,0,5.4,2.5,5.4,5.5c0,3-2.4,5.5-5.4,5.5c-0.9,0-1.8-0.3-2.6-0.7l-1,2
				c1.1,0.6,2.4,0.9,3.6,0.9c3.8,0,7-2.9,7.5-6.6h4.5c0.6,0,1.1-0.5,1.1-1.1V40.4C22.7,39.8,22.2,39.3,21.6,39.3z"/>
			<text transform="matrix(1 0 0 1 -6.4898 77.79)" class="st11 st6 st7">API-App<v:paragraph  v:horizAlign="1"></v:paragraph><v:tabList></v:tabList></text>
		</g>
		<g id="shape1142-51" transform="translate(73.5133,-41.2635)">
			<g transform="scale(-2.68,-2.68) ">
				<g id="lend5">
					<path class="st1" d="M88.2,67.9l8,4l-8,4C89.5,73.3,89.5,70.4,88.2,67.9"/>
				</g>
			</g>
		</g>
		<g id="group1143-57" transform="translate(0.375,-25.6729)">
			<g id="group1144-58">
				<g id="group1145-59">
					<g id="group1146-60" transform="translate(3.8518,-6.4617)">
						<g id="shape1147-61">
							<path class="st0" d="M3.6,54.9c-2.3,0.6-3.6,3.1-3,5.7c0.7,2.5,3,4.2,5.3,3.7c2.3-0.6,3.6-3.1,3-5.7
								C8.3,55.9,5.9,54.2,3.6,54.9z"/>
						</g>
					</g>
					<g id="group1148-63">
						<g id="shape1149-64">
							<path class="st0" d="M12.4,58.5c-0.4,0-0.9,0.8-1.5,1.1c-0.7,0.3-1.3,0.9-3.2,0c-1.9-0.9-2.1-1.7-3.6-1.7
								c-1.5,0-4.1,2.8-4.1,6.9h15.6c0,0-0.2-2.8-1.1-4.2C13.4,58.5,12.9,58.5,12.4,58.5z"/>
						</g>
					</g>
				</g>
			</g>
			<g id="group1150-66" transform="translate(9.0485,-0.85947)">
				<g id="shape1151-67">
					<path class="st2" d="M4.8,54.4H0.7C0.3,54.4,0,54.7,0,55v2.9c0,0.3,0.3,0.7,0.8,0.7h0.8v5.1c0,0.7,0.4,1.1,1,1.1s1-0.4,1-1
						c0.1,0,0.2,0,0.2,0s0-0.5,0-0.7c0-0.2,0.3-0.3,0.3-0.3v-0.3c-0.3-0.1-0.5-0.3-0.5-0.4v-0.3c0.1-0.1,0.2-0.2,0.2-0.2
						C3.8,61.4,4,61,4,61s-0.3-0.4-0.3-0.5c-0.1-0.1-0.1-0.3-0.2-0.4v-0.2c0.1-0.5,0.8-1.1,0.8-1.1h0.5c0.3,0,0.7-0.3,0.7-0.7v-3
						C5.4,54.7,5.2,54.4,4.8,54.4z M2.4,63.9c0,0.2,0,0.3-0.2,0.3C2,64.2,2,64,2,63.9v-4.8c0-0.2,0.1-0.3,0.2-0.3
						c0.2,0,0.2,0.2,0.2,0.3V63.9z M2.7,56.1c-0.3,0-0.7-0.3-0.7-0.7c0-0.3,0.3-0.7,0.7-0.7c0.3,0,0.6,0.3,0.6,0.7
						C3.4,55.8,3.1,56.1,2.7,56.1z"/>
				</g>
				<g id="shape1152-69" transform="translate(1.92482,-0.570755)">
					<path class="st3" d="M0.2,64.8c-0.1,0-0.2-0.1-0.2-0.2v-5c0-0.1,0.1-0.2,0.2-0.2s0.2,0.1,0.2,0.2v5.1
						C0.4,64.8,0.3,64.8,0.2,64.8z"/>
				</g>
				<g id="shape1153-71" transform="translate(2.05993,-8.66317)">
					<ellipse class="st3" cx="0.7" cy="64.1" rx="0.7" ry="0.7"/>
				</g>
			</g>
		</g>
	</g>
	<path class="st13" d="M163.3,31.5H73.7c-0.4,0-0.8-0.3-0.8-0.8v-0.2c0-0.4,0.3-0.8,0.8-0.8h89.5c0.4,0,0.8,0.3,0.8,0.8v0.2
		C164,31.1,163.7,31.5,163.3,31.5z"/>
</g>
</svg>
